<svg version="1.1" id="Capa_1" xmlns="http://www.w3.org/2000/svg" x="0" y="0" viewBox="0 0 301.8 311.9" xml:space="preserve"><style>.st0{fill:#fff}</style><path class="st0" d="M295 75l-.1-.4c-7.3-29.4-40.1-61-70.2-67.6h-.4c-48.8-9.3-98.2-9.3-146.9 0h-.3c-30.2 6.6-63 38.2-70.3 67.6v.4c-9 41.1-9 82.8 0 123.9l.1.4c7 28.2 37.4 58.3 66.4 66.6v32.9c0 11.9 14.5 17.7 22.7 9.1l33.3-34.6c7.2.4 14.4.6 21.7.6 24.5 0 49.1-2.3 73.5-7l.3-.1c30.1-6.6 63-38.2 70.2-67.6l.1-.4c8.9-41 8.9-82.7-.1-123.8zm-26.3 117.9c-4.9 19.2-29.8 43.1-49.6 47.5-25.9 4.9-52 7-78.1 6.3-.5 0-1 .2-1.4.6-3.7 3.8-24.3 24.9-24.3 24.9l-25.9 26.5c-1.9 2-5.2.6-5.2-2.1v-54.4c0-.9-.6-1.7-1.5-1.8-19.8-4.4-44.7-28.3-49.6-47.5-8.1-37.1-8.1-74.8 0-112C38 61.7 62.9 37.8 82.7 33.4c45.3-8.6 91.2-8.6 136.4 0 19.8 4.4 44.7 28.3 49.6 47.5 8.1 37.2 8.1 74.9 0 112z"/><path class="st0" d="M194 218c-3-.9-5.9-1.5-8.6-2.7-27.9-11.6-53.6-26.5-74-49.4-11.6-13-20.6-27.7-28.3-43.3-3.6-7.4-6.7-15-9.8-22.7-2.9-6.9 1.3-14.1 5.7-19.3 4.1-4.9 9.5-8.7 15.2-11.4 4.5-2.2 8.9-.9 12.2 2.9 7.1 8.3 13.6 16.9 18.9 26.5 3.3 5.9 2.4 13.1-3.5 17.1-1.4 1-2.7 2.1-4.1 3.2-1.2 1-2.3 1.9-3.1 3.2-1.5 2.4-1.5 5.2-.6 7.8 7.3 20 19.5 35.5 39.6 43.9 3.2 1.3 6.4 2.9 10.2 2.5 6.2-.7 8.2-7.5 12.6-11.1 4.2-3.5 9.7-3.5 14.3-.6s9 6 13.4 9.2c4.3 3.1 8.6 6.1 12.6 9.6 3.8 3.4 5.2 7.8 3 12.4-4 8.4-9.7 15.4-18 19.9-2.3 1.1-5.1 1.5-7.7 2.3-3.1-.9 2.6-.8 0 0zM151 59.6c36.5 1 66.5 25.3 72.9 61.4 1.1 6.2 1.5 12.4 2 18.7.2 2.6-1.3 5.1-4.1 5.2-2.9 0-4.2-2.4-4.4-5-.4-5.2-.6-10.4-1.4-15.6-3.8-27.2-25.5-49.7-52.5-54.5-4.1-.7-8.2-.9-12.4-1.4-2.6-.3-6-.4-6.6-3.7-.5-2.7 1.8-4.9 4.4-5 .6-.2 1.3-.1 2.1-.1 36.5 1-.8 0 0 0z"/><path class="st0" d="M206.4 131.5c-.1.5-.1 1.5-.4 2.5-1 3.7-6.5 4.1-7.8.4-.4-1.1-.4-2.3-.4-3.5 0-7.7-1.7-15.5-5.6-22.2-4-6.9-10.1-12.7-17.3-16.2-4.3-2.1-9-3.4-13.8-4.2-2.1-.3-4.2-.6-6.3-.8-2.5-.4-3.9-2-3.8-4.5.1-2.3 1.8-4 4.4-3.9 8.4.5 16.5 2.3 23.9 6.2 15.1 8 23.8 20.7 26.3 37.6.1.8.3 1.5.4 2.3.2 1.9.3 3.8.4 6.3 0 .4-.1-2.5 0 0z"/><path class="st0" d="M183.7 130.6c-3.1.1-4.7-1.6-5-4.4-.2-2-.4-3.9-.9-5.8-.9-3.7-2.9-7.2-6.1-9.5-1.5-1.1-3.2-1.9-4.9-2.4-2.2-.6-4.6-.5-6.8-1-2.4-.6-3.8-2.6-3.4-4.8.3-2.1 2.4-3.7 4.6-3.5 14.2 1 24.3 8.3 25.7 25 .1 1.2.2 2.4 0 3.5-.3 1.8-1.8 2.8-3.2 2.9-3 .1 1.4-.1 0 0z"/></svg>