<svg version="1.1" id="Layer_1" xmlns="http://www.w3.org/2000/svg" x="0" y="0" viewBox="0 0 1406.3 1256" xml:space="preserve"><style>.st0{fill:#d9f9f3}.st1,.st2{fill:#fff}.st2{stroke:#fff;stroke-width:10;stroke-miterlimit:10}.st4{fill:#ffe600}.st5{fill:#89aa00}.st6{fill:#d43732}.st7{fill:#758900}.st8{fill:#bf0}.st9{fill:#f1cfb2}.st11{fill:#0e2b49}.st12{fill:#fffeff}.st13{fill:#ced7e0}.st15{fill:#d0011b}</style><path class="st0" d="M1349 670.2c0-207.6-168.3-375.8-375.8-375.8-2.7 0-5.4 0-8.2.1C933.5 156.6 810.2 53.7 662.8 53.7c-154.3 0-282.3 112.8-306 260.5-109.3 70.9-181.7 194-181.7 334C175.2 867.9 353.3 1046 573 1046h424.4v-.8c196.2-12.5 351.6-175.6 351.6-375z"/><circle class="st0" cx="205.4" cy="231.5" r="132.1"/><circle class="st0" cx="94.2" cy="438.1" r="70.1"/><path class="st1" d="M335.4 677.1c-11.7 0-21.2-9.5-21.2-21.2V290.1c0-11.7 9.5-21.2 21.2-21.2h480.1c11.7 0 21.2 9.5 21.2 21.2v365.7c0 11.7-9.5 21.2-21.2 21.2l-480.1.1z"/><path class="st1" d="M815.6 273.9c9 0 16.2 7.3 16.2 16.2v365.7c0 9-7.3 16.2-16.2 16.2H335.4c-9 0-16.2-7.3-16.2-16.2V290.1c0-9 7.3-16.2 16.2-16.2h480.2m0-10H335.4c-14.5 0-26.2 11.8-26.2 26.2v365.7c0 14.5 11.8 26.2 26.2 26.2h480.1c14.5 0 26.2-11.8 26.2-26.2V290.1c.1-14.4-11.7-26.2-26.1-26.2z"/><path class="st2" d="M815.6 276.7c7.4 0 13.4 6 13.4 13.4v365.7c0 7.4-6 13.4-13.4 13.4H335.4c-7.4 0-13.4-6-13.4-13.4V290.1c0-7.4 6-13.4 13.4-13.4h480.2m0-5.6H335.4c-10.5 0-19 8.5-19 19v365.7c0 10.5 8.5 19 19 19h480.1c10.5 0 19-8.5 19-19V290.1c.1-10.5-8.5-19-18.9-19z"/><path class="st1" d="M376 569.5c-10.2 0-18.4-8.3-18.4-18.4V417.2c0-10.2 8.3-18.4 18.4-18.4h399.1c10.2 0 18.4 8.3 18.4 18.4v133.9c0 10.2-8.3 18.4-18.4 18.4H376z"/><path class="st1" d="M775 403.8c7.4 0 13.4 6 13.4 13.4v133.9c0 7.4-6 13.4-13.4 13.4H376c-7.4 0-13.4-6-13.4-13.4V417.2c0-7.4 6-13.4 13.4-13.4h399m0-10H376c-12.9 0-23.4 10.5-23.4 23.4v133.9c0 12.9 10.5 23.4 23.4 23.4h399.1c12.9 0 23.4-10.5 23.4-23.4V417.2c0-12.9-10.5-23.4-23.5-23.4z"/><path class="st1" d="M376 572.3c-11.7 0-21.2-9.5-21.2-21.2V417.2c0-11.7 9.5-21.2 21.2-21.2h399.1c11.7 0 21.2 9.5 21.2 21.2v133.9c0 11.7-9.5 21.2-21.2 21.2H376zm0-160.7c-3.1 0-5.6 2.6-5.6 5.6v133.9c0 3.1 2.6 5.6 5.6 5.6h399.1c3.1 0 5.6-2.6 5.6-5.6V417.2c0-3.1-2.6-5.6-5.6-5.6H376z"/><path class="st1" d="M775 401c9 0 16.2 7.3 16.2 16.2v133.9c0 9-7.3 16.2-16.2 16.2H376c-9 0-16.2-7.3-16.2-16.2V417.2c0-9 7.3-16.2 16.2-16.2h399M376 561.7h399.1c5.8 0 10.6-4.8 10.6-10.6V417.2c0-5.8-4.8-10.6-10.6-10.6H376c-5.8 0-10.6 4.8-10.6 10.6v133.9c-.1 5.8 4.7 10.6 10.6 10.6M775 391H376c-14.5 0-26.2 11.8-26.2 26.2v133.9c0 14.5 11.8 26.2 26.2 26.2h399.1c14.5 0 26.2-11.8 26.2-26.2V417.2c0-14.5-11.8-26.2-26.3-26.2zM376 551.7c-.3 0-.6-.3-.6-.6V417.2c0-.3.3-.6.6-.6h399.1c.3 0 .6.3.6.6v133.9c0 .3-.3.6-.6.6H376zm722.8 88.2c-15 0-26.7-13.8-31.2-36.8l-.1-.5V372.9l13 11.5c44.4 39.2 69.4 94.5 68.6 151.7-.3 21.6-4.2 42.7-11.4 62.7-9.6 26.5-23.4 41.1-38.9 41.1z"/><path class="st1" d="M1072.5 383.9l4.7 4.1c43.4 38.3 67.7 92.1 66.9 147.9-.3 20.9-4 41.5-11.1 61.1-8.7 24.1-21.2 37.8-34.3 37.8-12.4 0-22.3-12.3-26.3-32.8v-.2l.1-217.9m-10-22.1v241.3l.2 1c5 25.6 18.5 40.9 36.1 40.9 17.8 0 33.3-15.8 43.7-44.4 7.4-20.5 11.3-42.2 11.7-64.4.8-58.7-24.8-115.4-70.3-155.5l-4.7-4.1-16.7-14.8z"/><path class="st2" d="M1075.2 390.1c41.2 36.3 66.8 88.4 65.9 145.8-.3 21-4.1 41.3-11 60.2-8.8 24.7-20.8 36-31.5 36-10.4 0-19.7-10.9-23.6-30.6l.2-211.4m-5.6-12.4v224.5l.1.6c4.4 21.9 15.2 35 29.1 35 14.3 0 27.7-14.4 36.7-39.7 7.2-19.9 11-40.9 11.3-62.1.9-56.5-23.8-111.2-67.8-150l-9.4-8.3z"/><path class="st1" d="M953.9 876.1c-33.5 0-64.7-7.2-88.1-20.3-27.1-15.2-41.5-37.1-41.5-63.3 0-51.6 13.2-100.2 37.3-136.8 24.5-37.3 57.2-57.8 92.2-57.8s67.7 20.5 92.2 57.8c24 36.6 37.3 85.2 37.3 136.9 0 26.2-14.3 48.1-41.4 63.3-23.3 13-54.6 20.2-88 20.2z"/><path class="st1" d="M953.8 602.9c68.7 0 124.5 84.9 124.5 189.6 0 52.4-62.2 78.5-124.4 78.5-62.3 0-124.5-26.2-124.5-78.5-.1-104.6 55.7-189.6 124.4-189.6m0-10c-18.8 0-36.9 5.6-53.9 16.5-16 10.3-30.3 25-42.5 43.6-24.6 37.4-38.1 87-38.1 139.6 0 14.6 4.2 28.1 12.5 40.1 7.4 10.7 18.1 20 31.5 27.6 24.1 13.5 56.2 20.9 90.5 20.9s66.4-7.4 90.4-20.9c13.5-7.6 24.1-16.8 31.5-27.6 8.3-11.9 12.5-25.4 12.5-40.1 0-52.6-13.5-102.2-38.1-139.6-12.2-18.6-26.5-33.2-42.5-43.5-16.9-11-35-16.6-53.8-16.6z"/><path class="st1" d="M953.8 878.9c-34.1 0-65.9-7.3-89.4-20.7-28-15.7-42.8-38.4-42.8-65.7 0-52.1 13.4-101.3 37.8-138.3 25.1-38.1 58.6-59.1 94.5-59.1s69.5 21 94.5 59c24.4 37 37.8 86.2 37.8 138.4 0 27.2-14.8 50-42.9 65.7-23.8 13.4-55.6 20.7-89.5 20.7zm0-268.2c-30.7 0-59.7 18.7-81.8 52.5-22.5 34.5-34.9 80.5-34.9 129.3 0 27 19 43.2 34.9 52 21.4 12 50.5 18.6 81.9 18.6 31.3 0 60.3-6.6 81.7-18.6 15.9-9 34.9-25.3 34.9-52.1-.1-48.9-12.5-94.8-35-129.3-22-33.7-51-52.4-81.7-52.4z"/><path class="st1" d="M953.8 600.1c34.3 0 66.3 20.1 90.3 56.8 23.8 36.3 36.9 84.4 36.9 135.7 0 25.3-14 46.6-40.3 61.3-22.9 12.9-53.8 20-87 20-33.1 0-64-7.1-87-20-26.4-14.8-40.3-36-40.3-61.3 0-51.2 13.1-99.3 36.9-135.6 24.2-36.6 56.4-56.9 90.5-56.9m.1 268.1c32.1 0 62-6.8 84.2-19.3 17.1-9.6 37.5-27.2 37.5-56.4-.1-103-54.7-186.8-121.8-186.8s-121.7 83.8-121.7 186.8c0 29.3 20.4 46.9 37.5 56.4 22.2 12.5 52.1 19.3 84.3 19.3m-.1-278.1c-37.6 0-72.7 21.8-98.7 61.4-24.9 37.8-38.6 87.9-38.6 141.1 0 14.6 4 28.1 11.9 40.1 7.7 11.7 19 21.8 33.5 30 24.3 13.7 56.9 21.3 91.9 21.3 34.7 0 67.4-7.6 91.9-21.3 14.5-8.1 25.8-18.2 33.5-30 7.9-12 11.9-25.5 11.9-40.1 0-53.2-13.7-103.3-38.6-141.2-26-39.5-61-61.3-98.7-61.3zm.1 268.1c-30.5 0-58.7-6.4-79.4-18-14.8-8.2-32.4-23.1-32.4-47.7 0-47.9 12.1-92.8 34.1-126.6 21.1-32.4 48.7-50.3 77.6-50.3 28.9 0 56.5 17.8 77.6 50.3 22 33.7 34.1 78.7 34.2 126.6 0 19.6-10.9 35.6-32.4 47.7-20.7 11.6-48.8 18-79.3 18z"/><path class="st1" d="M833.5 869.7c-7.3 0-14.2-3.4-19.1-9.2H632.2c-14.2 0-25.8-12.6-25.8-28.1V721.1c0-15.5 11.6-28.1 25.8-28.1h181.6c14.2 0 25.8 12.6 25.8 28.1 0 7.2 2.4 13.9 6.9 18.8 4.2 4.8 9.8 7.4 15.7 7.4H909c14.2 0 25.8 12.6 25.8 28.1v66.3c0 15.5-11.6 28.1-25.8 28.1l-75.5-.1z"/><path class="st1" d="M813.8 698.1c11.5 0 20.8 10.3 20.8 23.1 0 8.4 2.9 16.3 8.2 22.2 5.1 5.8 12.1 9.1 19.4 9.1H909c11.5 0 20.8 10.3 20.8 23.1v66.3c0 12.8-9.4 23.1-20.8 23.1h-75.5c-6.6 0-12.9-3.6-16.8-9.4-1 .1-2 .2-2.9.2H632.2c-11.5 0-20.8-10.3-20.8-23.1V721.1c0-12.8 9.4-23.1 20.8-23.1l181.6.1m0-10H632.2c-17 0-30.8 14.8-30.8 33.1v111.4c0 18.2 13.8 33.1 30.8 33.1h180c5.7 5.8 13.3 9.2 21.3 9.2H909c17 0 30.8-14.8 30.8-33.1v-66.3c0-18.2-13.8-33.1-30.8-33.1h-46.8c-4.4 0-8.6-2-11.9-5.7-3.6-4-5.6-9.5-5.6-15.5-.1-18.3-13.9-33.1-30.9-33.1z"/><path class="st2" d="M813.8 701c10 0 18 9.1 18 20.3 0 18.8 13.5 34 30.3 34h46.8c10 0 18 9.1 18 20.3v66.3c0 11.2-8.2 20.3-18 20.3h-75.5c-6.5 0-12.2-3.9-15.3-9.7-1.3.3-2.8.6-4.3.6H632.2c-10 0-18-9.1-18-20.3V721.2c0-11.2 8.2-20.3 18-20.3l181.6.1m0-5.6H632.2c-13 0-23.6 11.6-23.6 25.9v111.4c0 14.2 10.6 25.9 23.6 25.9h181.6c.6 0 1.1 0 1.7-.1 4.5 5.8 11.1 9.2 18 9.2H909c13 0 23.6-11.6 23.6-25.9v-66.3c0-14.2-10.6-25.9-23.6-25.9h-46.8c-13.7 0-24.7-12.8-24.7-28.4-.1-14.3-10.7-25.8-23.7-25.8z"/><path class="st1" d="M1135.5 771.6c-25.8 0-46.8-21-46.8-46.8v-.9c0-25.8 21-46.8 46.8-46.8h.9c25.8 0 46.8 21 46.8 46.8v.9c0 25.8-21 46.8-46.8 46.8h-.9z"/><path class="st1" d="M1136.4 682.2c22.9 0 41.8 18.8 41.8 41.8v.9c0 22.9-18.8 41.8-41.8 41.8h-.9c-22.9 0-41.8-18.8-41.8-41.8v-.9c0-22.9 18.8-41.8 41.8-41.8h.9m0-10h-.9c-28.5 0-51.8 23.2-51.8 51.8v.9c0 28.5 23.2 51.8 51.8 51.8h.9c28.5 0 51.8-23.2 51.8-51.8v-.9c-.1-28.6-23.3-51.8-51.8-51.8z"/><path class="st1" d="M1135.5 774.4c-27.3 0-49.6-22.2-49.6-49.6v-.9c0-27.3 22.2-49.6 49.6-49.6h.9c27.3 0 49.6 22.2 49.6 49.6v.9c0 27.3-22.2 49.6-49.6 49.6h-.9zm0-84.4c-18.7 0-34 15.2-34 34v.9c0 18.7 15.2 34 34 34h.9c18.7 0 34-15.2 34-34v-.9c0-18.7-15.2-34-34-34h-.9z"/><path class="st1" d="M1136.4 679.4c24.5 0 44.6 20 44.6 44.6v.9c0 24.5-20 44.6-44.6 44.6h-.9c-24.5 0-44.6-20-44.6-44.6v-.9c0-24.5 20-44.6 44.6-44.6h.9m-.9 84.4h.9c21.5 0 39-17.5 39-39v-.9c0-21.5-17.5-39-39-39h-.9c-21.5 0-39 17.5-39 39v.9c0 21.5 17.5 39 39 39m.9-94.4h-.9c-30.1 0-54.6 24.5-54.6 54.6v.9c0 30.1 24.5 54.6 54.6 54.6h.9c30.1 0 54.6-24.5 54.6-54.6v-.9c-.1-30.2-24.5-54.6-54.6-54.6zm-.9 84.4c-16 0-29-13-29-29v-.9c0-16 13-29 29-29h.9c16 0 29 13 29 29v.9c0 16-13 29-29 29h-.9z"/><path class="st1" d="M1131.2 781.2c-1.1 0-1.9-.1-2.7-.2l-.4-.1c-39.6-6.6-67.2-29.9-67.2-56.7 0-26.7 27.6-50 67.2-56.6.8-.1 1.9-.3 3.1-.3 9.8 0 17.8 7.8 17.8 17.4v79c0 4.7-1.9 9.2-5.4 12.5-3.3 3.2-7.7 5-12.4 5z"/><path class="st1" d="M1131.2 672.3c7.1 0 12.8 5.6 12.8 12.4v79c0 3.4-1.3 6.5-3.8 8.8-2.5 2.4-5.6 3.6-9 3.6-.8 0-1.5-.1-2.2-.2-37.1-6.2-63-27.4-63-51.7 0-24.2 26-45.4 63-51.7.7-.1 1.5-.2 2.2-.2m0-10c-1.5 0-2.9.2-3.9.4-19.9 3.4-37.2 10.7-50.1 21.3-13.7 11.3-21.3 25.6-21.3 40.3 0 14.8 7.6 29.1 21.3 40.4 12.9 10.6 30.2 17.9 50.1 21.2h.4c.8.1 2 .3 3.4.3 5.9 0 11.6-2.3 15.9-6.3 4.5-4.2 6.9-10 6.9-16.1v-79c.1-12.4-10.1-22.5-22.7-22.5z"/><path class="st2" d="M1131.2 675.2c5.4 0 10 4.3 10 9.6v79c0 5.4-4.6 9.6-10 9.6-.6 0-1.1 0-1.7-.1-34.9-5.8-60.7-25.5-60.7-48.9s25.7-43.1 60.7-48.9c.6-.2 1.2-.3 1.7-.3m0-5.6c-.9 0-1.8.1-2.7.2-18 3-34.4 9.7-46 19-12.4 10-19.4 22.5-19.4 35.5s6.8 25.5 19.4 35.5c11.6 9.3 28 16 46 19 .9.1 1.8.2 2.7.2 8.6 0 15.6-6.8 15.6-15.2v-79c0-8.3-6.9-15.2-15.6-15.2z"/><path class="st1" d="M1023 763.6c-14.7 0-26.7-12-26.7-26.7s12-26.7 26.7-26.7h29.3c14.7 0 26.7 12 26.7 26.7s-12 26.7-26.7 26.7H1023z"/><path class="st1" d="M1052.3 715.2c12 0 21.7 9.7 21.7 21.7s-9.7 21.7-21.7 21.7H1023c-12 0-21.7-9.7-21.7-21.7s9.7-21.7 21.7-21.7h29.3m0-10H1023c-17.5 0-31.7 14.2-31.7 31.7s14.2 31.7 31.7 31.7h29.3c17.5 0 31.7-14.2 31.7-31.7s-14.2-31.7-31.7-31.7z"/><path class="st2" d="M1052.3 718c10.4 0 18.9 8.5 18.9 18.9 0 10.4-8.5 18.9-18.9 18.9H1023c-10.4 0-18.9-8.5-18.9-18.9 0-10.4 8.5-18.9 18.9-18.9h29.3m0-5.6H1023c-13.5 0-24.5 11-24.5 24.5s11 24.5 24.5 24.5h29.3c13.5 0 24.5-11 24.5-24.5s-10.9-24.5-24.5-24.5z"/><path class="st1" d="M1101.5 873.4c-11.6 0-21.9-7.4-25.5-18.5l-45.6-139.4c-4.5-14 3.1-29.2 17.1-33.7 2.8-.9 5.7-1.4 8.3-1.4 11.6 0 21.9 7.4 25.5 18.5l45.7 139.4c2.2 6.8 1.6 14.1-1.7 20.4-3.3 6.4-8.8 11.1-15.4 13.3-2.7 1-5.4 1.4-8.4 1.4z"/><path class="st1" d="M1055.8 685.5c9.5 0 17.8 6 20.7 15l45.7 139.4c1.8 5.5 1.3 11.4-1.3 16.6s-7.2 9.1-12.6 10.9c-2.1.8-4.4 1.1-6.7 1.1-9.4 0-17.8-6-20.7-15l-45.6-139.4c-3.7-11.4 2.6-23.7 13.9-27.4 2-.7 4.4-1.2 6.6-1.2m0-10c-3.1 0-6.4.5-9.7 1.6-16.6 5.4-25.7 23.4-20.3 40l45.5 139.4c4.3 13.1 16.4 21.9 30.2 21.9 3.6 0 6.9-.6 10-1.7 7.9-2.6 14.3-8.2 18.2-15.7s4.6-16.2 2-24.3L1086 697.3c-4.2-13-16.4-21.8-30.2-21.8z"/><path class="st2" d="M1055.9 688.3c7.9 0 15.4 5 18 13.1l45.6 139.4c3.2 9.9-2.2 20.6-12.1 23.8-1.9.7-3.9.9-5.8.9-7.9 0-15.4-5-18-13.1L1038 713c-3.2-9.9 2.2-20.6 12.1-23.8 1.9-.5 3.9-.9 5.8-.9m0-5.6c-2.6 0-5.1.4-7.6 1.2-12.9 4.3-19.9 18.1-15.7 30.9l45.4 139.5c3.4 10.1 12.6 16.9 23.4 16.9 2.6 0 5.1-.4 7.6-1.2 6.2-2 11.3-6.4 14.2-12.2 3-5.8 3.5-12.5 1.5-18.7l-45.6-139.4c-3.2-10.2-12.6-17-23.2-17z"/><path class="st1" d="M992.2 772c-19.4 0-35.1-15.8-35.1-35.1s15.8-35.1 35.1-35.1 35.1 15.8 35.1 35.1-15.7 35.1-35.1 35.1z"/><path class="st1" d="M992.2 706.8c16.6 0 30.1 13.5 30.1 30.1s-13.5 30.1-30.1 30.1-30.1-13.5-30.1-30.1 13.5-30.1 30.1-30.1m0-10c-22.1 0-40.1 18-40.1 40.1s18 40.1 40.1 40.1 40.1-18 40.1-40.1-18-40.1-40.1-40.1z"/><path class="st1" d="M992.2 774.8c-20.9 0-37.9-17-37.9-37.9s17-37.9 37.9-37.9 37.9 17 37.9 37.9-17 37.9-37.9 37.9zm0-60.2c-12.3 0-22.3 10-22.3 22.3s10 22.3 22.3 22.3 22.3-10 22.3-22.3-10-22.3-22.3-22.3z"/><path class="st1" d="M992.2 704c18.1 0 32.9 14.8 32.9 32.9 0 18.1-14.8 32.9-32.9 32.9-18.1 0-32.9-14.8-32.9-32.9s14.8-32.9 32.9-32.9m0 60.2c15.1 0 27.3-12.2 27.3-27.3s-12.2-27.3-27.3-27.3-27.3 12.2-27.3 27.3 12.2 27.3 27.3 27.3m0-70.2c-23.7 0-42.9 19.3-42.9 42.9s19.3 42.9 42.9 42.9c23.7 0 42.9-19.3 42.9-42.9 0-23.7-19.2-42.9-42.9-42.9zm0 60.2c-9.5 0-17.3-7.8-17.3-17.3s7.8-17.3 17.3-17.3 17.3 7.8 17.3 17.3-7.7 17.3-17.3 17.3z"/><path class="st1" d="M973.9 799.4c-46.9-6.3-86.3-31.6-105.3-67.7-15.1-28.7-15.4-60.4-.9-89.3l.1-.1.1-.1c.2-.4.4-.7.6-1.1.2-.5.5-.9.7-1.3l4.5-7.9 4.3 8c15.2 28.7 48.3 48.3 86.3 51.3l25.9 2.2v108.3l-16.3-2.3z"/><path class="st1" d="M873.5 642.2c16 30.1 50.6 50.8 90.3 54l21.3 1.8v98l-10.5-1.5c-84.6-11.3-135.3-84.6-102.4-149.8.5-.8.9-1.7 1.3-2.5m.4-20.7l-9 15.7c-.3.5-.5 1-.8 1.5-.2.3-.4.7-.5 1l-.1.2-.1.2c-7.8 15.4-11.5 31.6-11.2 48.1.3 15.8 4.4 31.2 12.1 45.7 19.8 37.6 60.6 63.9 109.1 70.4l10.5 1.4 11.4 1.6V688.6l-9.2-.8-21.3-1.8c-36.3-2.9-67.9-21.5-82.3-48.7l-8.6-15.8z"/><path class="st1" d="M984.5 803.7l-10.9-1.5c-47.8-6.4-88-32.3-107.4-69.2-15.5-29.5-15.9-61.9-1.1-91.5.2-.5.4-.9.7-1.2.1-.2.2-.3.3-.5l.7-1.3.1-.2c1.5-2.4 4-3.8 6.7-3.8s5.2 1.4 6.7 3.8l.1.1.1.2c14.8 27.9 47 47 84.1 49.9l21.3 1.8c4 .3 7.2 3.7 7.2 7.8v98c0 2.3-1 4.5-2.8 6l-.1.1c-1.4 1.1-3.2 1.8-5 1.8h-.7v-.3zM874.7 658.5c-7.9 22.2-6.1 45.8 5.2 67.1 17.2 32.5 53 55.4 95.8 61.1l1.7.2v-81.8l-14.1-1.2c-36.7-2.8-69.1-19.6-88.6-45.4z"/><path class="st1" d="M873.7 639.4c1 0 1.9.6 2.5 1.5 15.6 29.3 49.4 49.5 88.1 52.5l21.3 1.8c1.5.1 2.6 1.3 2.6 2.8v98c0 .8-.3 1.6-1 2.1-.6.4-1.2.7-1.9.7h-.3l-10.5-1.5c-46.2-6.2-85-31-103.7-66.6-14.8-28.1-15.1-59-.9-87.2 0 0 0-.1.1-.1.2-.3.4-.8.7-1.1.2-.4.4-.9.7-1.3.4-1 1.3-1.6 2.3-1.6m108.8 153.2v-92.1l-18.7-1.6c-38.7-3-72.7-22.4-90.1-50.9-12.3 26-11.8 54.3 1.9 79.9 17.9 33.9 55.1 57.8 99.5 63.7l7.4 1M873.7 629.4c-4.4 0-8.5 2.3-10.9 6.2l-.3.4-.2.4-.5.9s0 .1-.1.1c-.4.6-.8 1.2-1.1 1.9-15.5 31-15.1 65.1 1.2 96 20.2 38.4 61.7 65.3 111.2 71.9l10.5 1.5.7.1h1c2.9 0 5.8-1 8.2-2.9l.1-.1.1-.1c2.9-2.4 4.6-6 4.6-9.8v-98c0-6.6-5.2-12.2-11.8-12.8l-21.2-1.8c-35.4-2.8-66.1-20.9-80-47.2l-.2-.3-.2-.3c-2.6-3.8-6.7-6.1-11.1-6.1zm98.8 151.8c-39.4-6.3-72.2-27.8-88.1-57.9-9.2-17.3-11.8-36.2-7.5-54.4 8.1 8.9 17.9 16.6 28.9 22.9 17 9.6 36.8 15.6 57.2 17.2l9.5.8v71.4z"/><path class="st1" d="M953.6 679c-41.5 0-81.4-7.8-112.4-21.9-31.4-14.3-51.7-34.2-57.1-56.1-6.3-18.4-9.8-42.3-9.8-67.2 0-53.3 0-99.4 24.2-100.6.2-.1.4-.2.7-.2 30.1-11.3 105.4-37.5 154.4-37.5 23.2 0 68.5 6.2 152.4 35.5 1.3.5 2.6.9 3.3 1.1 24.1 1 24.2 47.2 24.4 100.6 0 27.2-4 52.6-11.4 71.4-13.7 43.4-84.5 74.9-168.7 74.9z"/><path class="st1" d="M953.6 400.4c56.8 0 153.8 36.6 154.8 36.6 19.4 0 20 42.8 20.2 95.6 0 27.5-4.3 52.3-11.1 69.7-12.6 40.7-81.2 71.7-163.9 71.7-84.7 0-154.5-32.5-164.7-74.4-5.9-17.1-9.6-40.3-9.6-65.8 0-52.8.7-95.6 20.1-95.6.4-.1 96.6-37.8 154.2-37.8m0-10c-49.9 0-125.8 26.4-156.2 37.8-5.6.5-12.7 3.2-18 12.4-3.3 5.7-5.7 13.6-7.3 24-2.7 17.7-2.9 41.8-2.9 69.1 0 25.4 3.6 49.8 10 68.7 5.9 23.3 27.1 44.3 59.8 59.2C870.8 676 911.4 684 953.6 684c41.1 0 81-7.6 112.3-21.4 32.3-14.3 53.9-34.4 61-56.9 7.5-19.4 11.6-45.3 11.6-73-.1-28.4-.3-51.5-3-69.1-1.6-10.4-3.9-18.3-7.2-24-5.4-9.3-12.6-12-18.2-12.4-.7-.2-1.6-.6-2.6-.9-84.4-29.7-130.3-35.9-153.9-35.9z"/><path class="st1" d="M953.6 681.8c-41.8 0-82.1-7.9-113.6-22.2-32.2-14.7-53-35.3-58.6-57.9-6.4-18.8-9.9-42.9-9.9-68 0-26.2 0-51 2.9-69.4 1.3-8.1 5.1-32.7 23.5-34 .2-.1.3-.1.5-.2 37.8-14.1 108-37.6 155.2-37.6 23.4 0 69 6.2 153.2 35.7.8.3 1.5.5 2.1.7.3.1.6.2.8.3 18.4 1.2 22.2 25.8 23.5 33.9 2.9 18.4 2.9 43.2 3 69.4 0 27.4-4.1 53-11.5 72.3-6.9 22-28.1 41.7-59.7 55.7-30.8 13.8-70.4 21.3-111.4 21.3zm-157.2-84.7l.1.6c4.4 18.4 22.6 35.5 51 48.2 29.3 13.1 67 20.3 106.1 20.3 38.6 0 76-7.1 105.1-19.9 27.7-12.2 45.9-28.6 51.3-46.3l.1-.4.2-.4c6.7-17.2 10.4-40.9 10.4-66.7-.1-22.5-.1-45.7-2.3-62.9-2.8-22.5-8-24.9-10.1-24.9-1.4 0-1.6-.1-6.7-1.8-82.2-28.6-126-34.6-148.2-34.6-49.9 0-133.6 30.6-149.9 36.7h-.1c-2.1.8-2.7 1-4.1 1-2.1 0-7.4 2.5-10.2 25.7-2.1 17.5-2.1 40.2-2.1 62.1 0 23.6 3.2 45.9 9.1 63l.3.3z"/><path class="st1" d="M953.6 397.6c23.1 0 68.1 6.2 151.6 35.4 1.6.6 3 1 3.6 1.2 22.3.6 22.4 45.9 22.5 98.4 0 27-4 52.1-11.2 70.6-13.2 42.7-83.2 73.5-166.5 73.5-41.2 0-80.7-7.7-111.5-21.7-30.9-14.1-50.7-33.5-55.9-54.7-6.3-18.2-9.7-41.9-9.7-66.6 0-52.4 0-97.7 22.4-98.4.2-.1.6-.2 1-.3 30-11.2 105-37.4 153.7-37.4m.1 273.6c39.4 0 77.5-7.3 107.1-20.4 29-12.8 48.2-30.3 54.1-49.4l.1-.2c7.1-17.9 10.9-42.3 10.9-68.7-.1-45.7-.2-92.8-17.4-92.8-.6 0-.6 0-5-1.6-83-28.9-127.3-34.9-149.9-34.9-49.1 0-128.5 28.3-151.7 37.1-1.9.7-1.9.7-2.5.7-17.4 0-17.4 49.3-17.4 92.8 0 24.2 3.4 47.2 9.5 64.9l.1.2c10.1 41.2 79.7 72.3 162.1 72.3m-.1-283.6c-47.9 0-118.5 23.6-156.7 37.8-6 .6-13.7 3.4-19.5 13-3.7 6-6.3 14.3-8 25.2-2.9 18.7-2.9 43.7-2.9 70.1 0 25.6 3.6 50.2 10.1 69.4 6 24.1 27.8 45.7 61.3 61 32.1 14.6 73.2 22.6 115.6 22.6 41.6 0 82-7.7 113.6-21.6 15.9-7 29.3-15.5 39.8-25.1 11.2-10.2 18.8-21.5 22.6-33.6 7.6-19.8 11.7-46 11.7-73.9-.1-26.5-.1-51.5-3.1-70.2-1.7-10.9-4.3-19.1-8-25.2-5.8-9.5-13.5-12.4-19.4-12.9-.1 0-.2-.1-.2-.1-.6-.2-1.3-.4-2-.7-84.9-29.6-131.1-35.8-154.9-35.8zM800 450.9c1.9-.1 3.1-.5 5.2-1.2h.2c16.1-6.1 99.1-36.4 148.2-36.4 21.8 0 65 6 146.6 34.4 4.8 1.7 5.9 2.1 7.8 2.1 1 1 4.4 6.2 6.3 26.3 1.5 16.1 1.5 36.6 1.6 56.5 0 25.1-3.6 48.1-10 64.7l-.3.6-.2.8c-4.9 16-22.6 31.7-48.5 43.1-28.5 12.6-65.1 19.5-103.1 19.5-76.6 0-143.5-28.4-152.3-64.7l-.3-1.1-.3-.7c-5.6-16.5-8.8-38.2-8.8-61 0-19.4 0-39.4 1.5-55.8 1.9-20.8 5.4-26 6.4-27.1z"/><path class="st1" d="M934 526c-23.5-.6-45.1-2.2-64-4.9l-2.9-.4-9.2-22.9-8.1 20.1-4.1-.8c-46.8-9.6-71.5-26.1-71.5-47.8 0-66.1 47.2-136.8 179.6-136.8 60.6 0 107.4 14.6 139 43.3 26.2 23.8 40.6 56.9 40.6 93.4 0 21.4-24.2 37.9-69.9 47.5l-4.1.9-7.9-19.8-9.1 22.6-2.9.4c-19.7 2.8-41.9 4.5-65.7 5.1l-3.5.1-16.5-40.9-16.3 40.9H934z"/><path class="st1" d="M953.8 337.5c129 0 174.6 68.2 174.6 131.8 0 19.9-25.7 34.1-65.9 42.7l-11-27.5-12.6 31.6c-19.7 2.8-41.8 4.5-65.2 5l-19.8-49.3-19.8 49.2c-22.7-.6-44.2-2.1-63.5-4.8l-12.8-31.8-11.2 27.8c-41.1-8.4-67.5-22.7-67.5-42.9.1-63.6 45.6-131.8 174.7-131.8m0-10c-31.8 0-60.4 4.1-84.9 12.1-22.7 7.5-42.1 18.4-57.6 32.5-27.2 24.7-42.2 59.2-42.2 97.1 0 9.3 4 22.7 23.1 34.4 12.4 7.6 30.1 13.7 52.4 18.3l8.2 1.7 3.1-7.7 1.9-4.7 3.5 8.7 2.2 5.4 5.7.8c19.1 2.7 40.9 4.3 64.6 4.9l6.9.2 2.6-6.4 10.5-26.2 10.5 26.2 2.6 6.4 6.9-.2c24.1-.6 46.4-2.3 66.3-5.1l5.7-.8 2.2-5.4 3.3-8.3 1.7 4.3 3.1 7.8 8.2-1.7c21.8-4.6 39.1-10.8 51.2-18.3 18.7-11.6 22.6-24.9 22.6-34.1 0-37.9-15-72.4-42.2-97.1-15.5-14.1-34.9-25-57.6-32.5-24.1-8.2-52.7-12.3-84.5-12.3zm0 316.2c-18.7 0-34-15.9-34-35.3v-5h68v5c0 19.5-15.2 35.3-34 35.3z"/><path class="st1" d="M982.8 608.4c0 16.8-13 30.3-29 30.3s-29-13.5-29-30.3h58m10-10h-78v10c0 22.2 17.5 40.3 39 40.3s39-18.1 39-40.3v-10z"/><path class="st1" d="M953.8 646.5c-20.3 0-36.8-17.1-36.8-38.1 0-4.3 3.5-7.8 7.8-7.8h58c4.3 0 7.8 3.5 7.8 7.8 0 21-16.5 38.1-36.8 38.1zm-19.9-30.3c3 8.7 10.8 14.7 19.9 14.7 9.1 0 16.9-6 19.9-14.7h-39.8z"/><path class="st1" d="M982.8 605.6c1.6 0 2.8 1.2 2.8 2.8 0 18.2-14.2 33.1-31.8 33.1S922 626.6 922 608.4c0-1.6 1.2-2.8 2.8-2.8h58m-2.9 5.6h-52.2c1.3 13.9 12.5 24.7 26.1 24.7s24.8-10.8 26.1-24.7m2.9-15.6h-58c-7.1 0-12.8 5.7-12.8 12.8 0 23.8 18.7 43.1 41.8 43.1 11.2 0 21.8-4.5 29.7-12.8 7.8-8.1 12.1-18.9 12.1-30.3 0-7.1-5.7-12.8-12.8-12.8zm-40.1 25.6h22.2c-2.9 3-6.8 4.7-11.1 4.7s-8.2-1.8-11.1-4.7zM882.5 588c-7.5 0-13.4-5.9-13.4-13.4 0-7.4-6-13.4-13.4-13.4s-13.4 6-13.4 13.4c0 7.5-5.9 13.4-13.4 13.4s-13.4-5.9-13.4-13.4c0-22.1 18-40.2 40.2-40.2s40.2 18 40.2 40.2c0 7.5-5.9 13.4-13.4 13.4z"/><path class="st1" d="M855.7 539.4c19.4 0 35.2 15.8 35.2 35.2 0 4.7-3.7 8.4-8.4 8.4s-8.4-3.7-8.4-8.4c0-10.1-8.3-18.4-18.4-18.4-10.1 0-18.4 8.3-18.4 18.4 0 4.7-3.7 8.4-8.4 8.4s-8.4-3.7-8.4-8.4c.1-19.4 15.9-35.2 35.2-35.2m0-10c-24.9 0-45.2 20.3-45.2 45.2 0 10.1 8.3 18.4 18.4 18.4s18.4-8.3 18.4-18.4c0-4.5 3.8-8.4 8.4-8.4 4.5 0 8.4 3.8 8.4 8.4 0 10.1 8.3 18.4 18.4 18.4s18.4-8.3 18.4-18.4c0-24.9-20.3-45.2-45.2-45.2zm223 58.6c-7.5 0-13.4-5.9-13.4-13.4 0-7.4-6-13.4-13.4-13.4s-13.4 6-13.4 13.4c0 7.5-5.9 13.4-13.4 13.4s-13.4-5.9-13.4-13.4c0-22.1 18-40.2 40.2-40.2 22.2 0 40.2 18 40.2 40.2 0 7.5-5.8 13.4-13.4 13.4z"/><path class="st1" d="M1052 539.4c19.4 0 35.2 15.8 35.2 35.2 0 4.7-3.7 8.4-8.4 8.4s-8.4-3.7-8.4-8.4c0-10.1-8.3-18.4-18.4-18.4-10.1 0-18.4 8.3-18.4 18.4 0 4.7-3.7 8.4-8.4 8.4s-8.4-3.7-8.4-8.4c0-19.4 15.8-35.2 35.2-35.2m0-10c-24.9 0-45.2 20.3-45.2 45.2 0 10.1 8.3 18.4 18.4 18.4 10.1 0 18.4-8.3 18.4-18.4 0-4.5 3.8-8.4 8.4-8.4 4.5 0 8.4 3.8 8.4 8.4 0 10.1 8.3 18.4 18.4 18.4 10.1 0 18.4-8.3 18.4-18.4-.1-24.9-20.3-45.2-45.2-45.2zM652.1 888.9c-11.2 0-20.3-9.1-20.3-20.3v-12.8c0-11.2 9.1-20.3 20.3-20.3h461.2c11.2 0 20.3 9.1 20.3 20.3v12.8c0 11.2-9.1 20.3-20.3 20.3H652.1z"/><path class="st1" d="M1113.3 840.4c8.5 0 15.3 6.9 15.3 15.3v12.8c0 8.5-6.9 15.3-15.3 15.3H652.1c-8.5 0-15.3-6.9-15.3-15.3v-12.8c0-8.5 6.9-15.3 15.3-15.3h461.2m0-10H652.1c-14 0-25.3 11.4-25.3 25.3v12.8c0 14 11.4 25.3 25.3 25.3h461.2c14 0 25.3-11.4 25.3-25.3v-12.8c.1-13.9-11.3-25.3-25.3-25.3z"/><path class="st2" d="M1113.3 843.1c6.9 0 12.5 5.6 12.5 12.5v12.8c0 6.9-5.6 12.5-12.5 12.5H652.1c-6.9 0-12.5-5.6-12.5-12.5v-12.8c0-6.9 5.6-12.5 12.5-12.5h461.2m0-5.6H652.1c-10 0-18.1 8.2-18.1 18.1v12.8c0 10 8.2 18.1 18.1 18.1h461.2c10 0 18.1-8.2 18.1-18.1v-12.8c.1-9.9-8-18.1-18.1-18.1z"/><path class="st1" d="M416.6 728.8c-16 0-29-13-29-29v-3.5c0-16 13-29 29-29h319.9c16 0 29 13 29 29v3.5c0 16-13 29-29 29H416.6z"/><path class="st1" d="M736.5 672.4c13.2 0 24 10.7 24 24v3.5c0 13.2-10.7 24-24 24H416.6c-13.2 0-24-10.7-24-24v-3.5c0-13.2 10.7-24 24-24h319.9m0-10H416.6c-18.7 0-34 15.2-34 34v3.5c0 18.7 15.2 34 34 34h319.9c18.7 0 34-15.2 34-34v-3.5c0-18.7-15.2-34-34-34z"/><path class="st2" d="M736.6 675.2c11.6 0 21.2 9.5 21.2 21.2v3.5c0 11.6-9.5 21.2-21.2 21.2h-320c-11.6 0-21.2-9.5-21.2-21.2v-3.5c0-11.6 9.5-21.2 21.2-21.2h320m0-5.6h-320c-14.8 0-26.8 12-26.8 26.8v3.5c0 14.8 12 26.8 26.8 26.8h319.9c14.8 0 26.8-12 26.8-26.8v-3.5c.1-14.8-12-26.8-26.7-26.8z"/><path class="st1" d="M1103.3 965.9c-43.5 0-78.9-35.4-78.9-78.9s35.4-78.9 78.9-78.9 78.9 35.4 78.9 78.9c-.1 43.5-35.4 78.9-78.9 78.9z"/><path class="st1" d="M1103.3 813.1c40.7 0 73.9 33.1 73.9 73.9 0 40.7-33.1 73.9-73.9 73.9-40.7 0-73.9-33.1-73.9-73.9 0-40.7 33.1-73.9 73.9-73.9m0-10c-46.3 0-83.9 37.6-83.9 83.9 0 46.3 37.6 83.9 83.9 83.9s83.9-37.6 83.9-83.9c-.1-46.2-37.7-83.9-83.9-83.9z"/><path class="st2" d="M1103.3 815.9c39.3 0 71.1 31.8 71.1 71.1s-31.8 71.1-71.1 71.1-71.1-31.8-71.1-71.1 31.8-71.1 71.1-71.1m0-5.6c-42.3 0-76.7 34.4-76.7 76.7s34.4 76.7 76.7 76.7c42.3 0 76.7-34.4 76.7-76.7s-34.4-76.7-76.7-76.7z"/><path class="st1" d="M1103.3 935.9c-27 0-48.9-21.9-48.9-48.9s21.9-48.9 48.9-48.9 48.9 21.9 48.9 48.9c-.1 27-22 48.9-48.9 48.9z"/><path class="st1" d="M1103.3 843.1c24.2 0 43.9 19.6 43.9 43.9 0 24.2-19.6 43.9-43.9 43.9s-43.9-19.6-43.9-43.9c0-24.2 19.6-43.9 43.9-43.9m0-10c-29.7 0-53.9 24.2-53.9 53.9s24.2 53.9 53.9 53.9 53.9-24.2 53.9-53.9c-.1-29.7-24.2-53.9-53.9-53.9z"/><path class="st1" d="M1103.3 917.1c-16.6 0-30.1-13.5-30.1-30.1s13.5-30.1 30.1-30.1 30 13.5 30 30.1-13.5 30.1-30 30.1z"/><path class="st1" d="M1103.3 861.9c13.8 0 25.1 11.2 25.1 25.1 0 13.8-11.2 25.1-25.1 25.1-13.9 0-25.1-11.2-25.1-25.1 0-13.8 11.2-25.1 25.1-25.1m0-10c-19.3 0-35.1 15.7-35.1 35.1 0 19.3 15.7 35.1 35.1 35.1 19.4 0 35-15.7 35-35.1 0-19.3-15.7-35.1-35-35.1z"/><path class="st1" d="M1029.6 894.8c-7.8 0-14.9-3.7-19.4-10.2s-5.5-14.7-2.7-21.9c14.8-39.8 53.3-66.5 95.8-66.5s81 26.8 95.8 66.6c2.7 7.3 1.7 15.4-2.7 21.8-4.5 6.5-11.6 10.2-19.5 10.2h-147.3z"/><path class="st1" d="M1103.3 801.2c40.4 0 77 25.4 91.1 63.4 2.1 5.7 1.3 12.2-2.1 17.2-3.6 5.1-9.2 8.1-15.3 8.1h-147.4c-6.2 0-11.8-2.9-15.3-8.1-3.5-5-4.4-11.5-2.1-17.2 14-37.9 50.6-63.4 91.1-63.4m0-10c-44.5 0-84.9 28-100.5 69.8-3.4 8.7-2.2 18.6 3.2 26.5 5.5 7.9 14.1 12.4 23.6 12.4h147.3c9.5 0 18.1-4.5 23.5-12.3 5.3-7.8 6.6-17.6 3.3-26.4-15.5-42-55.9-70-100.4-70z"/><path class="st2" d="M1103.1 804.1c40.5 0 75.1 25.6 88.5 61.5 3.9 10.4-3.8 21.5-14.9 21.5h-147.1c-11.1 0-18.8-11.1-14.9-21.5 13.3-36 47.9-61.5 88.4-61.5m0-5.6c-20.8 0-40.7 6.4-57.7 18.4-16.6 11.8-29 27.9-36 46.8-2.5 6.6-1.6 14 2.5 19.8 4 5.8 10.6 9.2 17.7 9.2h147.2c7.1 0 13.7-3.5 17.7-9.2 4-5.8 4.9-13.2 2.5-19.8-7.1-18.9-19.5-35.2-36-46.8-17.1-12.2-37-18.4-57.9-18.4z"/><path class="st1" d="M712.3 965.9c-43.5 0-78.9-35.4-78.9-78.9s35.4-78.9 78.9-78.9 78.9 35.4 78.9 78.9-35.4 78.9-78.9 78.9z"/><path class="st1" d="M712.3 813.1c40.7 0 73.9 33.1 73.9 73.9 0 40.7-33.1 73.9-73.9 73.9-40.7 0-73.9-33.1-73.9-73.9.1-40.7 33.2-73.9 73.9-73.9m0-10c-46.3 0-83.9 37.6-83.9 83.9 0 46.3 37.6 83.9 83.9 83.9s83.9-37.6 83.9-83.9c0-46.2-37.6-83.9-83.9-83.9z"/><path class="st2" d="M712.3 815.9c39.3 0 71.1 31.8 71.1 71.1s-31.8 71.1-71.1 71.1-71-31.8-71-71.1 31.8-71.1 71-71.1m0-5.6c-42.3 0-76.7 34.4-76.7 76.7s34.4 76.7 76.7 76.7S789 929.3 789 887s-34.4-76.7-76.7-76.7z"/><path class="st1" d="M712.3 935.9c-27 0-48.9-21.9-48.9-48.9s21.9-48.9 48.9-48.9 48.9 21.9 48.9 48.9-21.9 48.9-48.9 48.9z"/><path class="st1" d="M712.3 843.1c24.2 0 43.9 19.6 43.9 43.9 0 24.2-19.6 43.9-43.9 43.9s-43.9-19.6-43.9-43.9c.1-24.2 19.7-43.9 43.9-43.9m0-10c-29.7 0-53.9 24.2-53.9 53.9s24.2 53.9 53.9 53.9 53.9-24.2 53.9-53.9-24.1-53.9-53.9-53.9z"/><path class="st1" d="M712.3 917.1c-16.6 0-30.1-13.5-30.1-30.1s13.5-30.1 30.1-30.1 30.1 13.5 30.1 30.1-13.5 30.1-30.1 30.1z"/><path class="st1" d="M712.3 861.9c13.8 0 25.1 11.2 25.1 25.1 0 13.8-11.2 25.1-25.1 25.1s-25-11.2-25-25.1c0-13.8 11.2-25.1 25-25.1m0-10c-19.3 0-35.1 15.7-35.1 35.1 0 19.3 15.7 35.1 35.1 35.1s35.1-15.7 35.1-35.1c0-19.3-15.7-35.1-35.1-35.1z"/><path class="st1" d="M634.9 894.8c-7.6 0-14.9-3.4-20-9.4-5.3-6.3-7.5-14.5-6.2-22.6 12.4-73.8 55-125.3 103.6-125.3s91.2 51.5 103.6 125.3c1.4 8.2-.9 16.5-6.2 22.6-5.1 5.9-12.4 9.3-20 9.3H634.9v.1z"/><path class="st1" d="M712.2 742.6c46.1 0 86.6 49.8 98.6 121.1 1.1 6.7-.7 13.4-5 18.5-4.1 4.8-10 7.6-16.2 7.6H634.9c-6.2 0-12.1-2.8-16.2-7.6-4.4-5.1-6.2-11.9-5-18.5 11.9-71.3 52.4-121.1 98.5-121.1m0-10c-13 0-25.8 3.4-38 10.1-11.5 6.4-22.3 15.6-31.9 27.4-19.1 23.5-32.4 55.3-38.6 92-1.6 9.5 1 19.2 7.3 26.6 6.1 7 14.7 11.1 23.8 11.1h154.7c9.1 0 17.7-4 23.8-11.1 6.3-7.2 8.9-16.9 7.3-26.6-6.2-36.7-19.5-68.5-38.6-92-9.6-11.8-20.3-21-31.9-27.4-12-6.7-24.8-10.1-37.9-10.1z"/><path class="st2" d="M712.2 745.3c45.8 0 84.4 50.4 95.8 118.8 2 12-6.8 22.8-18.5 22.8H634.9c-11.6 0-20.5-11-18.5-22.8 11.5-68.4 50.1-118.8 95.8-118.8m0-5.6c-12.2 0-24.1 3.2-35.5 9.6-10.7 6-20.8 14.9-29.8 26.2-17.6 22.2-30.4 53.3-36.2 87.7-1.2 7.5.8 15.1 5.7 20.8 4.6 5.5 11.3 8.6 18.4 8.6h154.6c7.1 0 13.8-3.1 18.4-8.6 4.8-5.7 6.9-13.3 5.7-20.8-5.7-34.4-18.6-65.5-36.2-87.7-9-11.3-18.9-20.1-29.8-26.2-11.1-6.4-23.1-9.6-35.3-9.6z"/><path class="st1" d="M652 876.1c-7.8 0-14.2-6.4-14.2-14.2s6.4-14.2 14.2-14.2h73.2c7.8 0 14.2 6.4 14.2 14.2s-6.4 14.2-14.2 14.2H652z"/><path class="st1" d="M725.2 852.8c5 0 9.2 4.1 9.2 9.2 0 5-4.1 9.2-9.2 9.2H652c-5 0-9.2-4.1-9.2-9.2 0-5 4.1-9.2 9.2-9.2h73.2m0-10H652c-10.6 0-19.2 8.6-19.2 19.2s8.6 19.2 19.2 19.2h73.2c10.6 0 19.2-8.6 19.2-19.2s-8.6-19.2-19.2-19.2zm-73.2-.3c-7.8 0-14.2-6.4-14.2-14.2s6.4-14.2 14.2-14.2h73.2c7.8 0 14.2 6.4 14.2 14.2s-6.4 14.2-14.2 14.2H652z"/><path class="st1" d="M725.2 819.2c5 0 9.2 4.1 9.2 9.2 0 5-4.1 9.2-9.2 9.2H652c-5 0-9.2-4.1-9.2-9.2 0-5 4.1-9.2 9.2-9.2h73.2m0-10H652c-10.6 0-19.2 8.6-19.2 19.2s8.6 19.2 19.2 19.2h73.2c10.6 0 19.2-8.6 19.2-19.2s-8.6-19.2-19.2-19.2zm-268.9-63.9c-12.5 0-22.7-10.2-22.7-22.7v-68.4c0-12.5 10.2-22.7 22.7-22.7s22.7 10.2 22.7 22.7v68.4c0 12.5-10.2 22.7-22.7 22.7z"/><path class="st1" d="M456.3 636.5c9.7 0 17.7 7.9 17.7 17.7v68.4c0 9.7-7.9 17.7-17.7 17.7s-17.7-7.9-17.7-17.7v-68.4c0-9.8 8-17.7 17.7-17.7m0-10c-15.3 0-27.7 12.4-27.7 27.7v68.4c0 15.3 12.4 27.7 27.7 27.7s27.7-12.4 27.7-27.7v-68.4c0-15.3-12.4-27.7-27.7-27.7z"/><path class="st1" d="M456.3 748.1c-14.1 0-25.5-11.4-25.5-25.5v-68.4c0-14.1 11.4-25.5 25.5-25.5s25.5 11.4 25.5 25.5v68.4c0 14-11.4 25.5-25.5 25.5zm0-103.8c-5.5 0-9.9 4.4-9.9 9.9v68.4c0 5.5 4.4 9.9 9.9 9.9s9.9-4.4 9.9-9.9v-68.4c0-5.5-4.4-9.9-9.9-9.9z"/><path class="st1" d="M456.3 633.7c11.3 0 20.5 9.2 20.5 20.5v68.4c0 11.3-9.2 20.5-20.5 20.5s-20.5-9.2-20.5-20.5v-68.4c0-11.3 9.2-20.5 20.5-20.5m0 103.8c8.2 0 14.9-6.7 14.9-14.9v-68.4c0-8.2-6.7-14.9-14.9-14.9s-14.9 6.7-14.9 14.9v68.4c0 8.1 6.8 14.9 14.9 14.9m0-113.8c-16.8 0-30.5 13.7-30.5 30.5v68.4c0 16.8 13.7 30.5 30.5 30.5s30.5-13.7 30.5-30.5v-68.4c0-16.8-13.7-30.5-30.5-30.5zm0 103.8c-2.6 0-4.9-2.2-4.9-4.9v-68.4c0-2.6 2.2-4.9 4.9-4.9s4.9 2.2 4.9 4.9v68.4c0 2.6-2.2 4.9-4.9 4.9zm119 17.8c-12.5 0-22.7-10.2-22.7-22.7v-68.4c0-12.5 10.2-22.7 22.7-22.7s22.7 10.2 22.7 22.7v68.4c.1 5.9-2.2 11.6-6.5 15.9-4.3 4.4-10 6.8-16.2 6.8z"/><path class="st1" d="M575.3 636.5c9.7 0 17.7 7.9 17.7 17.7v68.4c.1 9.7-7.9 17.7-17.7 17.7-9.7 0-17.7-7.9-17.7-17.7v-68.4c0-9.8 8-17.7 17.7-17.7m0-10c-15.3 0-27.7 12.4-27.7 27.7v68.4c0 15.3 12.4 27.7 27.7 27.7 7.5 0 14.5-2.9 19.7-8.3 5.2-5.2 8-12.2 7.9-19.5v-68.3c.1-15.3-12.3-27.7-27.6-27.7z"/><path class="st1" d="M575.3 748.1c-14.1 0-25.5-11.4-25.5-25.5v-68.4c0-14.1 11.4-25.5 25.5-25.5s25.5 11.4 25.5 25.5v68.3c.1 6.6-2.5 13.2-7.3 17.9-4.7 4.9-11.2 7.7-18.2 7.7zm0-103.8c-5.5 0-9.9 4.4-9.9 9.9v68.4c0 5.5 4.4 9.9 9.9 9.9 2.7 0 5.2-1 7-2.9 1.9-1.9 2.9-4.3 2.9-6.9v-68.4c0-5.6-4.4-10-9.9-10z"/><path class="st1" d="M575.3 633.7c11.3 0 20.5 9.2 20.5 20.5v68.4c.1 5.4-2 10.5-5.8 14.3-3.9 4-9.2 6.2-14.7 6.2-11.3 0-20.5-9.2-20.5-20.5v-68.4c0-11.3 9.2-20.5 20.5-20.5m0 103.8c4 0 7.8-1.6 10.6-4.5 2.8-2.8 4.3-6.5 4.3-10.4v-68.4c0-8.2-6.7-14.9-14.9-14.9s-14.9 6.7-14.9 14.9v68.4c0 8.1 6.8 14.9 14.9 14.9m0-113.8c-16.8 0-30.5 13.7-30.5 30.5v68.4c0 16.8 13.7 30.5 30.5 30.5 8.3 0 16-3.2 21.8-9.1 5.7-5.7 8.8-13.5 8.7-21.4v-68.3c0-16.9-13.7-30.6-30.5-30.6zm0 103.8c-2.6 0-4.9-2.2-4.9-4.9v-68.4c0-2.6 2.2-4.9 4.9-4.9 2.6 0 4.9 2.2 4.9 4.9v68.4c0 1.3-.4 2.5-1.3 3.3l-.1.1-.1.1c-1.1 1.1-2.4 1.4-3.4 1.4zm119.1 17.8c-12.5 0-22.7-10.2-22.7-22.7v-68.4c0-12.5 10.2-22.7 22.7-22.7s22.7 10.2 22.7 22.7v68.4c0 12.5-10.2 22.7-22.7 22.7z"/><path class="st1" d="M694.4 636.5c9.7 0 17.7 7.9 17.7 17.7v68.4c0 9.7-7.9 17.7-17.7 17.7-9.7 0-17.7-7.9-17.7-17.7v-68.4c0-9.8 8-17.7 17.7-17.7m0-10c-15.3 0-27.7 12.4-27.7 27.7v68.4c0 15.3 12.4 27.7 27.7 27.7s27.7-12.4 27.7-27.7v-68.4c0-15.3-12.4-27.7-27.7-27.7z"/><path class="st1" d="M694.4 748.1c-14.1 0-25.5-11.4-25.5-25.5v-68.4c0-14.1 11.4-25.5 25.5-25.5s25.5 11.4 25.5 25.5v68.4c0 14-11.4 25.5-25.5 25.5zm0-103.8c-5.5 0-9.9 4.4-9.9 9.9v68.4c0 5.5 4.4 9.9 9.9 9.9s9.9-4.4 9.9-9.9v-68.4c0-5.5-4.4-9.9-9.9-9.9z"/><path class="st1" d="M694.4 633.7c11.3 0 20.5 9.2 20.5 20.5v68.4c0 11.3-9.2 20.5-20.5 20.5s-20.5-9.2-20.5-20.5v-68.4c.1-11.3 9.2-20.5 20.5-20.5m0 103.8c8.2 0 14.9-6.7 14.9-14.9v-68.4c0-8.2-6.7-14.9-14.9-14.9s-14.9 6.7-14.9 14.9v68.4c0 8.1 6.8 14.9 14.9 14.9m0-113.8c-16.8 0-30.5 13.7-30.5 30.5v68.4c0 16.8 13.7 30.5 30.5 30.5s30.5-13.7 30.5-30.5v-68.4c0-16.8-13.7-30.5-30.5-30.5zm0 103.8c-2.6 0-4.9-2.2-4.9-4.9v-68.4c0-2.6 2.2-4.9 4.9-4.9 2.6 0 4.9 2.2 4.9 4.9v68.4c0 2.6-2.2 4.9-4.9 4.9zm91.4-89.3c-15.3 0-29.4-15-38.7-41.2-7.2-20-11-41.1-11.4-62.7-1-68.5 14.7-118.2 48-152 17-17.2 38.8-30.4 65-39.3 27.5-9.3 60.8-14 99.1-14 60.2 0 97.8 5.6 121.6 18.2 22.8 12 31.1 29.1 40.9 48.9l.5 1.1c3.8 7.7 7.8 15.7 12.9 24.2h27.6c17.1 0 31 13.9 31 31s-13.9 31-31 31h-6c-106-.1-192.7-.1-250.7-.1-44.4 0-66.1 0-76 .1l.9 93.9c-.2 42.1-17.1 60.9-33.7 60.9z"/><path class="st1" d="M947.8 334c126.6 0 139 25.6 158.1 64.5 4.4 8.8 8.8 18 15.1 28h30.3c14.3 0 26 11.6 26 26s-11.6 26-26 26c-1.6 0-156.9-.1-256.7-.1-53.8 0-74.4 0-81 .1l.9 98.8c-.1 38.6-14.4 56-28.7 56-13 0-25.4-13.8-34-37.8-7.1-19.6-10.7-40.2-11.1-61.1-1-67.1 14.2-115.6 46.6-148.4 16.5-16.7 37.6-29.4 63-38.1 27.1-9.3 59.9-13.9 97.5-13.9m0-10c-38.8 0-72.7 4.8-100.7 14.3-26.9 9.1-49.4 22.8-66.9 40.5-34.3 34.8-50.5 85.7-49.4 155.6.4 22.2 4.3 43.8 11.7 64.4 4.7 13.2 10.6 23.7 17.4 31.2 9.8 10.9 19.6 13.2 26.1 13.2 11.1 0 21.4-6.7 28.2-18.4 6.9-11.7 10.4-27.7 10.4-47.5v-.2l-.8-88.8h71c58 0 144.7 0 250.7.1h6c19.8 0 36-16.1 36-36s-16.1-36-36-36h-24.7c-4.4-7.4-7.9-14.5-11.3-21.4l-.5-1v-.1c-9.7-19.7-18.8-38.4-43-51.2-24.9-12.9-63.1-18.7-124.2-18.7z"/><path class="st2" d="M947.7 336.8c154.4 0 136 37.3 171.6 92.5h31.8c12.8 0 23.2 10.4 23.2 23.2 0 12.8-10.4 23.2-23.2 23.2 0 0-155.8-.1-256.7-.1-48.2 0-84 0-84 .1l1 101.6c0 34-11.8 53.2-25.6 53.2-10.6 0-22.6-11.3-31.5-36-6.8-18.9-10.6-39.2-11-60.2-1.5-108.2 38.1-197.5 204.4-197.5m0-5.6c-37.9 0-71 4.7-98.4 13.9-25.7 8.7-47.4 21.7-64 38.7-32.9 33.4-48.4 82.6-47.4 150.5.3 21.3 4.1 42.1 11.3 62.1 9.1 25.3 22.4 39.7 36.7 39.7 9.2 0 17.4-6 23.1-16.9 5.4-10.4 8.3-25 8.3-42l-.9-96c8.8 0 30.3-.1 78.2-.1 99.7 0 255.1.1 256.7.1 15.9 0 28.8-12.9 28.8-28.8s-12.9-28.8-28.8-28.8h-28.8c-5.8-9.3-10-18-14.1-26.4-9.6-19.7-17.9-36.6-40.4-48.4-23.6-12.2-60.7-17.6-120.3-17.6z"/><path class="st1" d="M467.9 510.6c-2.3 0-4.4-.6-6.2-1.8-1.9-1.3-3.4-3-4.3-5.2l-2.4-5.4h-20.7l-2.4 5.4c-1 2.2-2.5 4.1-4.6 5.3-1.9 1.2-3.9 1.7-6.2 1.7-3 0-5.7-1-8.2-3-2.8-2.2-4.3-5.2-4.3-8.6 0-1.8.4-3.6 1.3-5.4l22-45.1c1.2-2.5 3-4.4 5.4-5.7 2.3-1.2 4.6-1.8 7.1-1.8 2.4 0 4.8.6 7.1 1.8 2.4 1.3 4.2 3.3 5.4 5.7l22.1 45.3.1.2c.6 1.5 1.1 3.1 1.1 5 0 3.2-1.3 6.1-3.8 8.4l-.2.1c-2.5 2.1-5.3 3.1-8.3 3.1zm-22.8-33.9l-.7-1.4-.7 1.4h1.4z"/><path class="st1" d="M444.4 446c1.7 0 3.2.4 4.7 1.2 1.5.8 2.6 2 3.2 3.5l22.1 45.2c.4 1.1.8 2.1.8 3.1 0 1.8-.8 3.4-2.2 4.7-1.5 1.2-3.1 1.9-5 1.9-1.2 0-2.5-.3-3.5-1s-1.9-1.7-2.5-3l-3.8-8.4h-27.1l-3.8 8.4c-.6 1.3-1.5 2.4-2.6 3s-2.2 1-3.6 1c-1.9 0-3.6-.7-5.1-1.9-1.6-1.2-2.4-2.8-2.4-4.7 0-1 .2-2 .8-3.1l22.1-45.2c.7-1.5 1.8-2.7 3.2-3.5 1.4-.8 3-1.2 4.7-1.2m-8.3 35.7h16.8l-8.4-18.6-8.4 18.6m8.3-45.7c-3.3 0-6.5.8-9.4 2.4-3.3 1.8-5.9 4.6-7.5 8l-22 45.1c-1.2 2.4-1.8 5-1.8 7.6 0 5 2.2 9.4 6.2 12.6 3.4 2.7 7.2 4 11.3 4 3.1 0 6-.8 8.7-2.4 2.9-1.8 5.2-4.4 6.6-7.6l1.1-2.4h14.2l1.1 2.4c1.3 3 3.4 5.5 6.1 7.3 2.6 1.8 5.8 2.7 9 2.7 4.2 0 8.2-1.5 11.5-4.3l.2-.1.2-.1c3.5-3.2 5.5-7.5 5.5-12 0-2.7-.8-5-1.5-6.8l-.1-.3-.2-.3-22-45.2c-1.6-3.4-4.3-6.2-7.5-8-3.3-1.8-6.5-2.6-9.7-2.6z"/><path class="st1" d="M488 511c-3.3 0-6.2-1-8.4-2.8-2.7-2.1-4-5.1-4-9.1v-28.9c0-4.8 2.2-7.5 4.1-8.9 2.4-1.9 5.2-2.8 8.2-2.8 3.3 0 6.1 1 8.3 3l.1.1c2.7-1.8 5.6-2.8 8.8-3l1-.1c.4-.1.9-.1 1.4-.1 2.6 0 5 .9 6.9 2.6 1.5 1.4 3.3 3.9 3.3 8.3 0 3.5-1 6.3-3 8.3-1.9 1.9-4.8 3-8.7 3.4l-2.3.2c-2 .2-2.5.8-2.5.8l-.1.2c-.2.2-.6.7-.6 2.6v14.3c0 4.9-2.2 7.7-4.1 9.1-2.4 1.8-5.2 2.8-8.4 2.8z"/><path class="st1" d="M507.5 463.5c1.5 0 2.6.5 3.6 1.3 1.1 1 1.7 2.6 1.7 4.6 0 2.2-.6 3.8-1.6 4.8s-2.9 1.7-5.6 1.9l-2.5.2c-2.8.3-4.8 1.2-5.9 2.7-1.2 1.5-1.8 3.4-1.8 5.8v14.3c0 2.2-.7 4-2.1 5.1s-3.1 1.7-5.3 1.7-3.9-.6-5.3-1.7c-1.5-1.1-2.1-2.8-2.1-5.1v-28.9c0-2.1.7-3.8 2.1-4.9s3.1-1.8 5.1-1.8 3.7.6 4.9 1.7c1.2 1.1 1.9 2.7 1.9 4.7v1.6c.9-2.5 2.4-4.4 4.4-5.7s4.1-2 6.4-2.1l1.1-.1c.4-.1.7-.1 1-.1m0-10c-.7 0-1.3 0-2 .1l-.8.1c-2.8.2-5.5.9-8.1 2-2.6-1.4-5.5-2.2-8.7-2.2-4.1 0-8 1.3-11.2 3.9-3.9 3-6 7.6-6 12.9v28.9c0 6.8 3.2 10.8 5.9 13 3.1 2.5 7.1 3.9 11.5 3.9 4.3 0 8.1-1.3 11.4-3.8 3.9-3 6-7.6 6-13.1v-13l1.1-.1c5.1-.4 9-2 11.8-4.8 2.1-2.1 4.5-5.8 4.5-11.9 0-4.9-1.8-9.1-5-12-2.9-2.6-6.5-3.9-10.4-3.9z"/><path class="st1" d="M522.9 511c-4.2 0-6.9-1.6-8.5-3-2.6-2.1-3.9-5.1-3.9-9v-28.7c0-4.9 2.2-7.7 4.1-9.1.3-.2.5-.4.8-.6-.6-.3-1.1-.7-1.6-1.2l-.2-.1c-2.6-2.4-3.8-5.4-3.8-8.9 0-3.6 1.4-6.8 4-9 2.4-2 5.6-3.1 9.2-3.1 3.6 0 6.8 1.1 9.2 3.1 2.6 2.2 4 5.4 4 9 0 3.5-1.3 6.6-3.8 8.9-.5.5-1.1.9-1.7 1.3.3.2.6.4.8.6 2.7 2.1 4 5.1 4 9.1v28.8c0 4.9-2.2 7.7-4.1 9.1-2.5 1.8-5.3 2.8-8.5 2.8z"/><path class="st1" d="M522.9 443.4c2.5 0 4.5.7 5.9 1.9 1.5 1.2 2.2 3 2.2 5.1s-.8 3.9-2.2 5.3c-1.5 1.3-3.5 2-5.9 2-2.5-.1-4.5-.8-5.9-2-1.5-1.3-2.2-3-2.2-5.3 0-2.1.8-3.9 2.2-5.1 1.5-1.2 3.5-1.9 5.9-1.9m0 20.1c2.1 0 3.9.6 5.3 1.7 1.5 1.1 2.1 2.8 2.1 5.1v28.8c0 2.2-.7 4-2.1 5.1-1.5 1.1-3.1 1.7-5.3 1.7-2.2 0-3.9-.6-5.3-1.8-1.5-1.1-2.1-2.8-2.1-5.1v-28.7c0-2.2.7-4 2.1-5.1 1.4-1.1 3.2-1.7 5.3-1.7m0-30.1c-4.8 0-9.1 1.5-12.4 4.3-3.7 3.2-5.8 7.7-5.8 12.8 0 3.9 1.2 7.5 3.5 10.4-1.8 2.7-2.7 5.9-2.7 9.5V499c0 6.7 3 10.6 5.7 12.8 2.2 2 6 4.1 11.7 4.1 4.3 0 8.1-1.3 11.4-3.8 3.9-3 6-7.6 6-13.1v-28.8c0-4.1-1.2-7.2-2.7-9.5 2.2-2.9 3.5-6.6 3.5-10.4 0-5.1-2.1-9.6-5.8-12.8-3.3-2.6-7.6-4.1-12.4-4.1z"/><path class="st1" d="M558.6 526.1c-3.6 0-6.7-.3-9.7-.9-3.4-.7-6.2-1.7-8.4-3-1.8-1-3.1-2.3-4.1-3.8-1.1-1.8-1.7-3.7-1.7-5.7 0-2.7.8-5.1 2.3-7 .8-1 1.7-1.7 2.7-2.3-1.9-1.8-3.4-3.9-4.7-6.4-1.9-3.8-2.9-8.2-2.9-13s1-9.2 2.9-13c2-3.9 4.7-6.9 8.3-9.3l.1-.1c3.6-2.2 7.7-3.3 12.1-3.3 3.5 0 6.8.8 9.7 2.2.6.3 1.2.6 1.7 1 .1-.1.2-.1.3-.2 2.3-1.9 5.1-2.8 8.4-2.8 4.3 0 7.1 1.7 8.6 3.1 2.4 2.2 3.6 5.2 3.6 8.6v30.1c0 8.4-2.7 14.9-7.9 19.3-5.1 4.3-12.3 6.5-21.3 6.5zm1.4-46.6c-1.6 0-2.1.5-2.3.7-.2.3-.9 1-.9 3.7 0 2.4.8 3.3 1 3.6.2.2.6.7 2 .7 1.8-.1 2.3-.7 2.5-.9.5-.5.8-1.8.8-3.4 0-1.2-.2-2.8-.9-3.7-.1-.2-.6-.7-2.2-.7z"/><path class="st1" d="M555.5 463.4c2.7 0 5.3.6 7.5 1.7s4 2.7 5.3 4.6c.1-1.9.8-3.4 2.1-4.5s3-1.7 5.1-1.7c2.1 0 3.9.6 5.3 1.8 1.3 1.2 2 2.9 2 4.9v30.1c0 6.8-2 12-6.2 15.4-4.1 3.5-10.1 5.3-18 5.3-3 0-5.9-.2-8.7-.8-2.7-.6-5-1.3-6.9-2.5-1-.6-1.8-1.2-2.4-2.1-.6-.9-.9-1.9-.9-3 0-1.6.4-2.9 1.2-3.9.8-1 1.9-1.5 3.1-1.5 1 0 2.8.4 5.5 1.2 1.7.6 3.2 1 4.6 1.3 1.4.3 2.7.4 4.1.4 3.4 0 5.9-.7 7.5-2.1 1.6-1.5 2.4-3.7 2.4-6.7v-3.1c-1.2 1.8-3 3.2-5.3 4.4-2.2 1.1-4.8 1.7-7.4 1.7-3.6 0-6.7-.8-9.5-2.5s-4.9-4-6.5-7.2c-1.6-3.1-2.4-6.7-2.4-10.7s.8-7.6 2.4-10.7c1.6-3.1 3.7-5.5 6.5-7.3 2.9-1.6 6-2.5 9.6-2.5m4.5 29.8c2.6-.1 4.6-.9 6-2.5 1.5-1.6 2.1-3.9 2.1-6.8s-.7-5.3-2.1-6.9c-1.5-1.7-3.5-2.5-6-2.5s-4.6.8-6 2.5c-1.5 1.7-2.1 3.9-2.1 6.9 0 2.9.8 5.1 2.2 6.8s3.4 2.5 5.9 2.5m-4.5-39.8c-5.3 0-10.2 1.3-14.7 4l-.1.1-.1.1c-4.3 2.8-7.7 6.5-10 11.2-2.3 4.5-3.4 9.6-3.4 15.2s1.1 10.7 3.4 15.2c.7 1.3 1.4 2.6 2.2 3.7-2 2.7-3.1 6.1-3.1 9.7 0 2.9.8 5.8 2.4 8.3 1.4 2.3 3.4 4.1 5.9 5.5 2.7 1.6 6 2.8 9.9 3.6 3.3.7 6.8 1 10.7 1 10.2 0 18.4-2.6 24.4-7.6 6.5-5.4 9.7-13.2 9.7-23.1v-30.1c0-4.8-1.9-9.2-5.3-12.3-2.2-2-6.1-4.4-12-4.4-3.3 0-6.3.7-8.9 2.2-3.3-1.5-7.1-2.3-11-2.3z"/><path class="st1" d="M604.8 511.1c-3.5 0-6.9-.7-9.9-2.2-3.2-1.6-5.6-3.8-7.4-6.6-1.9-2.8-2.8-6.1-2.8-9.7 0-4.1 1.2-7.6 3.6-10.3.6-.7 1.3-1.4 2.1-2-.5-.4-1.1-.9-1.5-1.4l-.1-.1-.1-.1c-1.5-1.9-2.3-4.3-2.3-7 0-2.3.5-4.2 1.6-5.7 1.1-1.8 2.7-2.9 4.1-3.7l.1-.1.1-.1c2.2-1.2 5-2.1 8.6-2.9h.1c3.4-.7 6.6-1 9.7-1 7.7.1 13.6 2.2 17.5 6.2 4 4 6.1 9.8 6.1 17.3v17.5c0 4.4-1.9 7.1-3.5 8.5-2.2 2.1-5.1 3.2-8.7 3.2-2.9 0-5.6-.9-7.6-2.5-.2.1-.3.2-.5.3-2.6 1.6-5.7 2.4-9.2 2.4z"/><path class="st1" d="M610.7 463.2c6.3.1 11 1.7 14 4.7s4.6 7.6 4.6 13.8v17.5c0 2.1-.7 3.8-1.9 4.9-1.2 1.2-3 1.8-5.3 1.8-1.9 0-3.6-.6-4.8-1.7-1.2-1.1-1.9-2.6-2-4.5-.8 2-2.1 3.6-3.9 4.7s-4 1.7-6.6 1.7c-2.8 0-5.4-.6-7.7-1.7-2.2-1.1-4-2.7-5.4-4.8-1.3-2-2-4.4-2-6.9 0-2.9.8-5.3 2.4-7.1 1.6-1.8 3.9-3 7.3-3.8 3.4-.8 7.8-1.1 13.5-1.1h2.2v-1c0-1.9-.4-3.4-1.3-4.3-.9-.9-2.4-1.3-4.5-1.3-2.2 0-5.6.8-10.1 2.4-1.2.4-2.4.7-3.2.7-1.3 0-2.5-.4-3.4-1.5-.8-1-1.2-2.4-1.2-3.9 0-1.2.2-2.2.8-3 .4-.8 1.3-1.5 2.5-2.1 1.9-1 4.4-1.8 7.4-2.5 2.8-.7 5.7-1 8.6-1m-2.3 32.9c2 0 3.6-.7 4.9-2.1 1.2-1.5 1.9-3.2 1.9-5.5v-1h-1.3c-3.6 0-6 .3-7.6 1-1.5.7-2.2 1.7-2.2 3.2 0 1.2.4 2.4 1.2 3.1.7.9 1.8 1.3 3.1 1.3m2.4-42.9c-3.5 0-6.9.4-10.7 1.1h-.2c-4.1.9-7.3 2-9.9 3.4l-.2.1-.2.1c-1.7 1-4.1 2.6-5.7 5.3-1.6 2.4-2.4 5.2-2.4 8.4 0 3.1.8 6 2.2 8.4-2.6 3.4-3.9 7.7-3.9 12.5 0 4.5 1.3 8.8 3.6 12.4s5.4 6.4 9.3 8.3h.2c3.7 1.8 7.7 2.7 12 2.7 3.5 0 6.7-.7 9.6-2 2.3 1.1 5 1.7 7.8 1.7 6.1 0 10-2.4 12.2-4.6 3.2-3 5-7.3 5-12.2v-17.5c0-8.8-2.5-15.9-7.5-20.8-5.1-4.6-12.2-7.1-21.2-7.3z"/><path class="st1" d="M660.3 510.9c-.5 0-1.1 0-1.7-.1l-2.3-.1c-6.4-.4-11.3-2.5-14.8-6.1-3.5-3.7-5.3-8.6-5.3-14.5v-9.9c-6.7-1-9.2-5.8-9.2-10.3s2.5-9.4 9.2-10.3v-.7c0-4.5 2-7.2 3.6-8.7 2.3-2.1 5.3-3.2 8.9-3.2 3.5 0 6.6 1.1 8.9 3.2 1.7 1.5 3.6 4.3 3.6 8.7v.5c8.3.2 11.3 5.5 11.3 10.5s-3 10.3-11.3 10.5v9.9l1.3.1h.1c6.1.6 9.9 4.5 9.9 10.1 0 3.5-1.6 6.5-4.4 8.5l-.1.1-.1.1c-2 1-4.6 1.7-7.6 1.7z"/><path class="st1" d="M648.8 451.9c2.2 0 4.1.7 5.5 1.9 1.3 1.2 2 2.9 2 5v5.5h4.6c4.5 0 6.7 1.8 6.7 5.5s-2.2 5.5-6.7 5.5h-4.6v16c0 1 .3 1.9 1 2.7.7.7 1.5 1.1 2.5 1.1l2.5.1c3.5.3 5.4 2 5.4 5.1 0 1.9-.8 3.4-2.2 4.4-1.2.7-2.9 1.2-5 1.2-.4 0-.9 0-1.3-.1l-2.4-.1c-5-.3-8.8-1.9-11.4-4.6-2.6-2.7-3.9-6.4-3.9-11.1v-14.8H639c-4.5 0-6.7-1.8-6.7-5.5 0-3.6 2.2-5.5 6.7-5.5h2.5v-5.5c0-2.1.7-3.8 2-5s2.9-1.8 5.3-1.8m0-10c-6 0-10 2.5-12.2 4.5-2 1.8-4.2 4.7-5 9.1-6.5 2.5-9.5 8.4-9.5 14.2 0 5.8 2.9 11.6 9.2 14.1v6.1c0 9.1 3.6 14.8 6.7 18 4.4 4.6 10.4 7.1 18 7.6h.2l2.2.1c.7.1 1.3.1 2 .1 3.9 0 7.5-.9 10.3-2.7l.2-.1.2-.2c4.2-2.9 6.5-7.5 6.5-12.6 0-7.2-4.4-12.7-11.3-14.5v-1.2c7.8-2 11.3-8.5 11.3-14.8 0-6.5-3.7-13-11.7-14.9-.9-4-3-6.8-4.8-8.4-3.3-2.8-7.6-4.4-12.3-4.4z"/><path class="st1" d="M706.5 505.8c-4.5 0-8.7-1.8-11.9-4.9l-12.3-12.3c-.3-.3-.5-.6-.8-.8 0-.1-.1-.1-.2-.2l-.2-.2-.2-.2c-1.3-1.6-2.2-3.5-2.9-5.6-.6-1.9-.8-4.1-.7-6.3.3-4 2-7.7 4.8-10.4l12.3-12.3c3.2-3.2 7.4-4.9 11.9-4.9s8.8 1.8 11.9 4.9l12.3 12.3c2.8 2.8 4.5 6.5 4.8 10.4.2 2.2 0 4.3-.6 6.2-.5 1.7-1.4 3.5-2.7 5.4-.5.7-1 1.2-1.5 1.7l-12.3 12.3c-2.9 3.2-7.2 4.9-11.7 4.9z"/><path class="st1" d="M706.5 452.6c3.1 0 6.2 1.2 8.4 3.5l12.3 12.3c2 2 3.1 4.6 3.4 7.3.1 1.5 0 3-.4 4.5-.3 1.3-1.1 2.7-2 3.9-.2.3-.6.7-.9 1L715 497.4c-2.2 2.2-5.3 3.5-8.4 3.5-3.1 0-6.2-1.2-8.4-3.5L685.8 485c-.3-.3-.6-.7-.9-1-.9-1.1-1.6-2.5-2-3.9s-.6-3-.4-4.5c.2-2.7 1.3-5.3 3.4-7.3l12.3-12.3c2.2-2.2 5.2-3.4 8.3-3.4m0-10c-5.8 0-11.3 2.3-15.5 6.4l-12.3 12.3c-3.6 3.6-5.8 8.4-6.3 13.5-.2 2.8.1 5.7.9 8.2.8 2.7 2.1 5.1 3.8 7.2l.3.4.2.2c.2.3.6.7 1 1.2l12.3 12.3c4.1 4.1 9.6 6.4 15.5 6.4 5.8 0 11.3-2.3 15.5-6.4l12.3-12.3c.5-.5 1.3-1.3 2-2.3 1.7-2.4 2.9-4.7 3.5-7 .7-2.5 1-5.2.8-7.9-.4-5.1-2.6-9.9-6.3-13.5L722 449c-4.1-4.2-9.6-6.4-15.5-6.4z"/><path class="st1" d="M706.6 519.4c-6.2 0-12.2-2.5-16.6-7l-12.3-12.3c-4.3-4.2-6.8-9.9-6.9-16v-8.7c.3-5.7 2.7-11.1 6.8-15.3l12.3-12.3c4.3-4.5 10.3-6.9 16.6-6.9 6.2 0 12.2 2.5 16.6 6.9l12.3 12.3c3.9 3.8 6.4 9 6.8 14.7l.3.9v8.5c-.3 6-2.8 11.6-6.9 15.8l-12.3 12.4c-4.4 4.5-10.3 7-16.7 7zM689 481.2l.3.3 12.3 12.3c1.3 1.3 3 2 4.9 2 1.8 0 3.6-.7 4.9-2l12.3-12.3s.1-.1.1-.2c.2-.2.3-.4.5-.6.4-.6.8-1.3 1-2.1.2-.7.3-1.7.2-2.6-.1-1.6-.8-3-1.9-4.1l-12.3-12.3c-1.3-1.3-3-2-4.9-2-1.8 0-3.6.7-4.9 2l-12.3 12.3a6.55 6.55 0 0 0-1.9 4.2c-.1.9 0 1.9.2 2.6v.2c.3.3.6 1 1.5 2.3z"/><path class="st1" d="M706.5 445.8c4.7 0 9.5 1.9 13.1 5.5l12.3 12.3c3.4 3.2 5.1 7.6 5.4 12l.2.8v7.6c-.2 4.6-2 9.1-5.5 12.5l-12.3 12.3c-3.6 3.7-8.3 5.5-13.1 5.5-4.7 0-9.5-1.9-13.1-5.5l-12.3-12.3c-3.6-3.5-5.4-7.9-5.5-12.5v-8.4c.2-4.4 2-8.6 5.4-12l12.3-12.3c3.6-3.7 8.3-5.5 13.1-5.5m0 55c3.1 0 6.2-1.2 8.4-3.5l12.3-12.3c.3-.3.6-.7.9-1 .9-1.1 1.6-2.5 2-3.9.4-1.5.6-3 .4-4.5-.2-2.7-1.3-5.3-3.4-7.3L714.9 456c-2.2-2.2-5.3-3.5-8.4-3.5-3.1 0-6.2 1.2-8.4 3.5l-12.3 12.3c-2 2-3.1 4.6-3.4 7.3-.1 1.5 0 3 .4 4.5.3 1.3 1.1 2.7 2 3.9.2.3.6.7.9 1l12.3 12.3c2.4 2.3 5.4 3.5 8.5 3.5m0-65c-7.7 0-14.9 3-20.2 8.5L674 456.6c-5 5-7.9 11.6-8.3 18.5v9.2c.2 7.4 3.2 14.3 8.5 19.4l12.3 12.3c5.3 5.3 12.7 8.4 20.2 8.4 7.7 0 14.9-3 20.2-8.5l12.3-12.3c5.1-5.1 8-11.9 8.4-19.1V475l-.3-1.2c-.6-6.6-3.5-12.7-8.3-17.3l-12.3-12.3c-5.4-5.3-12.7-8.4-20.2-8.4zm-14.1 40.6c.1-.6.4-.9.5-1l12.3-12.3c.3-.3.8-.5 1.3-.5s1 .2 1.3.5l12.3 12.3c.1.1.4.4.5 1v.7c-.1.3-.2.4-.2.5l-.4.4-12.2 12.2c-.3.3-.8.5-1.3.5s-1-.2-1.3-.5L692.9 478c-.2-.2-.3-.4-.3-.5l-.1-.3c-.1-.1-.1-.4-.1-.8z"/><path class="st1" d="M706.4 492.4c-2.9 0-5.5-1.1-7.5-3.2l-5-5c-2.1-2.1-3.2-4.8-3.1-7.7 0-2.8 1.2-5.4 3.2-7.4l5-5c2-2 4.7-3.1 7.6-3.1 2.9 0 5.5 1.1 7.5 3.2l5.1 5.1c4 4.2 3.9 10.9-.1 14.9l-5 5c-2.1 2.1-4.8 3.2-7.7 3.2z"/><path class="st1" d="M706.5 466c1.4 0 2.9.6 3.9 1.7l5 5c2.1 2.2 2.1 5.8 0 7.9l-5 5c-1.1 1.1-2.6 1.7-4 1.7s-2.9-.6-3.9-1.7l-5-5c-2.2-2.2-2.2-5.8 0-7.9l5-5c1.1-1.1 2.6-1.7 4-1.7m0-10c-4.2 0-8.1 1.6-11.1 4.6l-5 5c-3 2.9-4.6 6.7-4.7 10.9-.1 4.2 1.6 8.3 4.6 11.3l5 5c2.9 3 6.9 4.7 11.1 4.7 4.2 0 8.1-1.6 11.1-4.6l5-5c5.9-5.9 6-15.8.2-21.9l-.1-.1-.1-.1-5-5c-2.8-3.1-6.8-4.8-11-4.8z"/><path d="M335.4 672.1c-9 0-16.2-7.3-16.2-16.2V290.1c0-9 7.3-16.2 16.2-16.2h480.1c9 0 16.2 7.3 16.2 16.2v365.7c0 9-7.3 16.2-16.2 16.2l-480.1.1z" fill="#eb8c24"/><path d="M815.6 276.7c7.4 0 13.4 6 13.4 13.4v365.7c0 7.4-6 13.4-13.4 13.4H335.4c-7.4 0-13.4-6-13.4-13.4V290.1c0-7.4 6-13.4 13.4-13.4h480.2m0-5.6H335.4c-10.5 0-19 8.5-19 19v365.7c0 10.5 8.5 19 19 19h480.1c10.5 0 19-8.5 19-19V290.1c.1-10.5-8.5-19-18.9-19z"/><path class="st4" d="M775 403.8H376c-7.4 0-13.4 6-13.4 13.4v133.9c0 7.4 6 13.4 13.4 13.4h399.1c7.4 0 13.4-6 13.4-13.4V417.2c0-7.4-6.1-13.4-13.5-13.4z"/><path d="M775 567.3H376c-9 0-16.2-7.3-16.2-16.2V417.2c0-9 7.3-16.2 16.2-16.2h399.1c9 0 16.2 7.3 16.2 16.2v133.9c0 8.9-7.3 16.2-16.3 16.2zM376 406.6c-5.8 0-10.6 4.8-10.6 10.6v133.9c0 5.8 4.8 10.6 10.6 10.6h399.1c5.8 0 10.6-4.8 10.6-10.6V417.2c0-5.8-4.8-10.6-10.6-10.6H376z"/><path class="st5" d="M1098.8 634.9c-12.4 0-22.3-12.3-26.3-32.8V383.9l4.7 4.1c43.4 38.3 67.7 92.1 66.9 147.9-.3 20.9-4 41.5-11.1 61.1-8.7 24.2-21.1 37.9-34.2 37.9z"/><path d="M1075.2 390.1c41.2 36.3 66.8 88.4 65.9 145.8-.3 21-4.1 41.3-11 60.2-8.8 24.7-20.8 36-31.5 36-10.4 0-19.7-10.9-23.6-30.6l.2-211.4m-5.6-12.4v224.5l.1.6c4.4 21.9 15.2 35 29.1 35 14.3 0 27.7-14.4 36.7-39.7 7.2-19.9 11-40.9 11.3-62.1.9-56.5-23.8-111.2-67.8-150l-9.4-8.3z"/><path class="st6" d="M1078.3 792.5c0-104.8-55.7-189.6-124.5-189.6s-124.5 85-124.5 189.6 249 104.8 249 0z"/><path d="M953.8 873.9c-33.1 0-64-7.1-87-20-26.4-14.8-40.3-36-40.3-61.3 0-51.2 13.1-99.3 36.9-135.6 24.1-36.6 56.2-56.9 90.3-56.9 34.3 0 66.3 20.1 90.3 56.8 23.8 36.3 36.9 84.4 36.9 135.7 0 25.3-14 46.6-40.3 61.3-22.8 12.9-53.7 20-86.8 20zm0-268.2c-67.1 0-121.7 83.8-121.7 186.8 0 29.3 20.4 46.9 37.5 56.4 22.2 12.4 52.1 19.3 84.3 19.3 32.1 0 62-6.8 84.2-19.3 17.1-9.6 37.5-27.2 37.5-56.4-.1-103-54.7-186.8-121.8-186.8z"/><path class="st7" d="M833.5 864.7c-6.6 0-12.9-3.6-16.8-9.4-1 .1-2 .2-2.9.2H632.2c-11.5 0-20.8-10.3-20.8-23.1V721.1c0-12.8 9.4-23.1 20.8-23.1h181.6c11.5 0 20.8 10.3 20.8 23.1 0 8.4 2.9 16.3 8.2 22.2 5.1 5.8 12.1 9.1 19.4 9.1H909c11.5 0 20.8 10.3 20.8 23.1v66.3c0 12.8-9.4 23.1-20.8 23.1l-75.5-.2z"/><path d="M813.8 701c10 0 18 9.1 18 20.3 0 18.8 13.5 34 30.3 34h46.8c10 0 18 9.1 18 20.3v66.3c0 11.2-8.2 20.3-18 20.3h-75.5c-6.5 0-12.2-3.9-15.3-9.7-1.3.3-2.8.6-4.3.6H632.2c-10 0-18-9.1-18-20.3V721.2c0-11.2 8.2-20.3 18-20.3l181.6.1m0-5.6H632.2c-13 0-23.6 11.6-23.6 25.9v111.4c0 14.2 10.6 25.9 23.6 25.9h181.6c.6 0 1.1 0 1.7-.1 4.5 5.8 11.1 9.2 18 9.2H909c13 0 23.6-11.6 23.6-25.9v-66.3c0-14.2-10.6-25.9-23.6-25.9h-46.8c-13.7 0-24.7-12.8-24.7-28.4-.1-14.3-10.7-25.8-23.7-25.8z"/><path class="st4" d="M1136.4 766.6h-.9c-22.9 0-41.8-18.8-41.8-41.8v-.9c0-22.9 18.8-41.8 41.8-41.8h.9c22.9 0 41.8 18.8 41.8 41.8v.9c-.1 23-18.9 41.8-41.8 41.8z"/><path d="M1136.4 769.4h-.9c-24.5 0-44.6-20-44.6-44.6v-.9c0-24.5 20-44.6 44.6-44.6h.9c24.5 0 44.6 20 44.6 44.6v.9c-.1 24.5-20.1 44.6-44.6 44.6zm-.9-84.4c-21.5 0-39 17.5-39 39v.9c0 21.5 17.5 39 39 39h.9c21.5 0 39-17.5 39-39v-.9c0-21.5-17.5-39-39-39h-.9z"/><path class="st8" d="M1131.2 776.2c-.8 0-1.5-.1-2.2-.2-37.1-6.2-63-27.4-63-51.7 0-24.2 26-45.4 63-51.7.7-.1 1.5-.2 2.2-.2 7.1 0 12.8 5.6 12.8 12.4v79c0 3.4-1.3 6.5-3.8 8.8-2.5 2.4-5.6 3.6-9 3.6z"/><path d="M1131.2 675.2c5.4 0 10 4.3 10 9.6v79c0 5.4-4.6 9.6-10 9.6-.6 0-1.1 0-1.7-.1-34.9-5.8-60.7-25.5-60.7-48.9s25.7-43.1 60.7-48.9c.6-.2 1.2-.3 1.7-.3m0-5.6c-.9 0-1.8.1-2.7.2-18 3-34.4 9.7-46 19-12.4 10-19.4 22.5-19.4 35.5s6.8 25.5 19.4 35.5c11.6 9.3 28 16 46 19 .9.1 1.8.2 2.7.2 8.6 0 15.6-6.8 15.6-15.2v-79c0-8.3-6.9-15.2-15.6-15.2z"/><path class="st7" d="M1023 758.6c-12 0-21.7-9.7-21.7-21.7s9.7-21.7 21.7-21.7h29.3c12 0 21.7 9.7 21.7 21.7s-9.7 21.7-21.7 21.7H1023z"/><path d="M1052.3 718c10.4 0 18.9 8.5 18.9 18.9 0 10.4-8.5 18.9-18.9 18.9H1023c-10.4 0-18.9-8.5-18.9-18.9 0-10.4 8.5-18.9 18.9-18.9h29.3m0-5.6H1023c-13.5 0-24.5 11-24.5 24.5s11 24.5 24.5 24.5h29.3c13.5 0 24.5-11 24.5-24.5s-10.9-24.5-24.5-24.5z"/><path class="st5" d="M1101.5 868.4c-9.4 0-17.8-6-20.7-15L1035.2 714c-3.7-11.4 2.6-23.7 13.9-27.4 2.1-.7 4.5-1.1 6.7-1.1 9.5 0 17.8 6 20.7 15l45.7 139.4c1.8 5.5 1.3 11.4-1.3 16.6s-7.2 9.1-12.6 10.9c-2.2.7-4.5 1-6.8 1z"/><path d="M1055.9 688.3c7.9 0 15.4 5 18 13.1l45.6 139.4c3.2 9.9-2.2 20.6-12.1 23.8-1.9.7-3.9.9-5.8.9-7.9 0-15.4-5-18-13.1L1038 713c-3.2-9.9 2.2-20.6 12.1-23.8 1.9-.5 3.9-.9 5.8-.9m0-5.6c-2.6 0-5.1.4-7.6 1.2-12.9 4.3-19.9 18.1-15.7 30.9l45.4 139.5c3.4 10.1 12.6 16.9 23.4 16.9 2.6 0 5.1-.4 7.6-1.2 6.2-2 11.3-6.4 14.2-12.2 3-5.8 3.5-12.5 1.5-18.7l-45.6-139.4c-3.2-10.2-12.6-17-23.2-17z"/><circle class="st9" cx="992.2" cy="736.9" r="30.1"/><path d="M992.2 769.8c-18.1 0-32.9-14.8-32.9-32.9s14.8-32.9 32.9-32.9c18.1 0 32.9 14.8 32.9 32.9 0 18.1-14.8 32.9-32.9 32.9zm0-60.2c-15.1 0-27.3 12.2-27.3 27.3s12.2 27.3 27.3 27.3 27.3-12.2 27.3-27.3-12.2-27.3-27.3-27.3z"/><path class="st6" d="M873.5 642.2c-.4.8-.9 1.7-1.3 2.5-32.9 65.2 17.8 138.5 102.4 149.8l10.5 1.5v-98l-21.3-1.8c-39.7-3.2-74.2-23.9-90.3-54z"/><path d="M985.2 798.7h-.3l-10.5-1.5c-46.2-6.2-85-31-103.7-66.6-14.8-28.1-15.1-59-.9-87.2 0 0 0-.1.1-.1.2-.3.4-.8.7-1.1.2-.4.4-.9.7-1.3.6-.9 1.5-1.5 2.5-1.5s1.9.6 2.5 1.5c15.6 29.3 49.4 49.5 88.1 52.5l21.3 1.8c1.5.1 2.6 1.3 2.6 2.8v98c0 .8-.3 1.6-1 2.1-.8.4-1.5.6-2.1.6zM873.7 648c-12.3 26-11.8 54.3 1.9 79.9 17.9 33.9 55.1 57.8 99.5 63.7l7.4 1v-92.1l-18.7-1.6c-38.8-3-72.7-22.3-90.1-50.9z"/><path class="st9" d="M1108.4 437c-1 0-98.1-36.6-154.8-36.6-57.5 0-153.8 37.7-154.1 37.7-19.5 0-20.1 42.8-20.1 95.6 0 25.5 3.7 48.7 9.6 65.8 10.2 42 79.9 74.4 164.7 74.4 82.7 0 151.3-31 163.9-71.6 6.8-17.5 11.1-42.2 11.1-69.7-.3-52.8-.9-95.6-20.3-95.6z"/><path d="M953.6 676.8c-41.2 0-80.7-7.7-111.5-21.7-30.9-14.1-50.7-33.5-55.9-54.7-6.3-18.2-9.7-41.9-9.7-66.6 0-52.4 0-97.7 22.4-98.4.2-.1.6-.2 1-.3 30-11.2 105-37.4 153.7-37.4 23.1 0 68.1 6.2 151.6 35.4 1.6.6 3 1 3.6 1.2 22.3.6 22.4 45.9 22.5 98.4 0 27-4 52.1-11.2 70.6-13.3 42.6-83.2 73.5-166.5 73.5zm0-273.6c-49.1 0-128.5 28.3-151.7 37.1-1.9.7-1.9.7-2.5.7-17.4 0-17.4 49.3-17.4 92.8 0 24.2 3.4 47.2 9.5 64.9l.1.2c10 41.2 79.6 72.3 162 72.3 39.4 0 77.5-7.3 107.1-20.4 29-12.8 48.2-30.3 54.1-49.4l.1-.2c7.1-17.9 10.9-42.3 10.9-68.7-.1-45.7-.2-92.8-17.4-92.8-.6 0-.6 0-5-1.6-82.9-28.9-127.2-34.9-149.8-34.9z"/><path d="M1128.4 469.2c0-63.6-45.7-131.8-174.6-131.8-129.1 0-174.6 68.2-174.6 131.8 0 20.1 26.4 34.5 67.5 42.9l11.2-27.8 12.8 31.8c19.3 2.7 40.7 4.3 63.5 4.8l19.8-49.3 19.8 49.3c23.4-.6 45.4-2.2 65.2-5l12.6-31.6 11 27.5c40.1-8.4 65.8-22.6 65.8-42.6z" fill="#090a08"/><path class="st6" d="M982.8 608.4c0 16.8-13 30.3-29 30.3s-29-13.5-29-30.3h58z"/><path d="M953.8 641.5c-17.6 0-31.8-14.9-31.8-33.1 0-1.6 1.2-2.8 2.8-2.8h58c1.6 0 2.8 1.2 2.8 2.8 0 18.2-14.2 33.1-31.8 33.1zm-26.1-30.3c1.3 13.9 12.5 24.7 26.1 24.7s24.7-10.9 26.1-24.7h-52.2zm-72-71.8c-19.4 0-35.2 15.8-35.2 35.2 0 4.7 3.7 8.4 8.4 8.4s8.4-3.7 8.4-8.4c0-10.1 8.3-18.4 18.4-18.4 10.1 0 18.4 8.3 18.4 18.4 0 4.7 3.7 8.4 8.4 8.4s8.4-3.7 8.4-8.4c0-19.4-15.8-35.2-35.2-35.2zm196.3 0c-19.4 0-35.2 15.8-35.2 35.2 0 4.7 3.7 8.4 8.4 8.4s8.4-3.7 8.4-8.4c0-10.1 8.3-18.4 18.4-18.4 10.1 0 18.4 8.3 18.4 18.4 0 4.7 3.7 8.4 8.4 8.4s8.4-3.7 8.4-8.4c-.1-19.4-15.8-35.2-35.2-35.2z"/><path class="st5" d="M652.1 883.9c-8.5 0-15.3-6.9-15.3-15.3v-12.8c0-8.5 6.9-15.3 15.3-15.3h461.2c8.5 0 15.3 6.9 15.3 15.3v12.8c0 8.5-6.9 15.3-15.3 15.3H652.1z"/><path d="M1113.3 843.1c6.9 0 12.5 5.6 12.5 12.5v12.8c0 6.9-5.6 12.5-12.5 12.5H652.1c-6.9 0-12.5-5.6-12.5-12.5v-12.8c0-6.9 5.6-12.5 12.5-12.5h461.2m0-5.6H652.1c-10 0-18.1 8.2-18.1 18.1v12.8c0 10 8.2 18.1 18.1 18.1h461.2c10 0 18.1-8.2 18.1-18.1v-12.8c.1-9.9-8-18.1-18.1-18.1z"/><path class="st8" d="M416.6 723.8c-13.2 0-24-10.7-24-24v-3.5c0-13.2 10.7-24 24-24h319.9c13.2 0 24 10.7 24 24v3.5c0 13.2-10.7 24-24 24H416.6z"/><path d="M736.6 675.2c11.6 0 21.2 9.5 21.2 21.2v3.5c0 11.6-9.5 21.2-21.2 21.2h-320c-11.6 0-21.2-9.5-21.2-21.2v-3.5c0-11.6 9.5-21.2 21.2-21.2h320m0-5.6h-320c-14.8 0-26.8 12-26.8 26.8v3.5c0 14.8 12 26.8 26.8 26.8h319.9c14.8 0 26.8-12 26.8-26.8v-3.5c.1-14.8-12-26.8-26.7-26.8z"/><path class="st11" d="M1103.3 960.9c-40.7 0-73.9-33.1-73.9-73.9 0-40.7 33.1-73.9 73.9-73.9 40.7 0 73.9 33.1 73.9 73.9s-33.2 73.9-73.9 73.9z"/><path d="M1103.3 815.9c39.3 0 71.1 31.8 71.1 71.1s-31.8 71.1-71.1 71.1-71.1-31.8-71.1-71.1 31.8-71.1 71.1-71.1m0-5.6c-42.3 0-76.7 34.4-76.7 76.7s34.4 76.7 76.7 76.7c42.3 0 76.7-34.4 76.7-76.7s-34.4-76.7-76.7-76.7z"/><circle class="st12" cx="1103.3" cy="887" r="43.9"/><circle class="st13" cx="1103.3" cy="887" r="25.1"/><path class="st8" d="M1029.6 889.8c-6.2 0-11.8-2.9-15.3-8.1-3.5-5-4.4-11.5-2.1-17.2 14.1-37.8 50.7-63.4 91.1-63.4s77 25.4 91.1 63.4c2.1 5.7 1.3 12.2-2.1 17.2-3.6 5.1-9.2 8.1-15.3 8.1h-147.4z"/><path d="M1103.1 804.1c40.5 0 75.1 25.6 88.5 61.5 3.9 10.4-3.8 21.5-14.9 21.5h-147.1c-11.1 0-18.8-11.1-14.9-21.5 13.3-36 47.9-61.5 88.4-61.5m0-5.6c-20.8 0-40.7 6.4-57.7 18.4-16.6 11.8-29 27.9-36 46.8-2.5 6.6-1.6 14 2.5 19.8 4 5.8 10.6 9.2 17.7 9.2h147.2c7.1 0 13.7-3.5 17.7-9.2 4-5.8 4.9-13.2 2.5-19.8-7.1-18.9-19.5-35.2-36-46.8-17.1-12.2-37-18.4-57.9-18.4z"/><path class="st11" d="M712.3 960.9c-40.7 0-73.9-33.1-73.9-73.9 0-40.7 33.1-73.9 73.9-73.9s73.9 33.1 73.9 73.9-33.1 73.9-73.9 73.9z"/><path d="M712.3 815.9c39.3 0 71.1 31.8 71.1 71.1s-31.8 71.1-71.1 71.1-71-31.8-71-71.1 31.8-71.1 71-71.1m0-5.6c-42.3 0-76.7 34.4-76.7 76.7s34.4 76.7 76.7 76.7S789 929.3 789 887s-34.4-76.7-76.7-76.7z"/><circle class="st12" cx="712.3" cy="887" r="43.9"/><circle class="st13" cx="712.3" cy="887" r="25.1"/><path class="st8" d="M634.9 889.8c-6.2 0-12.1-2.8-16.2-7.6-4.4-5.1-6.2-11.9-5-18.5 12-71.3 52.5-121.1 98.6-121.1s86.6 49.8 98.6 121.1c1.1 6.7-.7 13.4-5 18.5-4.1 4.8-10 7.6-16.2 7.6H634.9z"/><path d="M712.2 745.3c45.8 0 84.4 50.4 95.8 118.8 2 12-6.8 22.8-18.5 22.8H634.9c-11.6 0-20.5-11-18.5-22.8 11.5-68.4 50.1-118.8 95.8-118.8m0-5.6c-12.2 0-24.1 3.2-35.5 9.6-10.7 6-20.8 14.9-29.8 26.2-17.6 22.2-30.4 53.3-36.2 87.7-1.2 7.5.8 15.1 5.7 20.8 4.6 5.5 11.3 8.6 18.4 8.6h154.6c7.1 0 13.8-3.1 18.4-8.6 4.8-5.7 6.9-13.3 5.7-20.8-5.7-34.4-18.6-65.5-36.2-87.7-9-11.3-18.9-20.1-29.8-26.2-11.1-6.4-23.1-9.6-35.3-9.6z"/><path d="M725.2 871.1H652c-5 0-9.2-4.1-9.2-9.2 0-5 4.1-9.2 9.2-9.2h73.2c5 0 9.2 4.1 9.2 9.2s-4.1 9.2-9.2 9.2zm0-33.6H652c-5 0-9.2-4.1-9.2-9.2 0-5 4.1-9.2 9.2-9.2h73.2c5 0 9.2 4.1 9.2 9.2s-4.1 9.2-9.2 9.2z" fill="#89af00"/><path class="st4" d="M456.3 740.3c-9.7 0-17.7-7.9-17.7-17.7v-68.4c0-9.7 7.9-17.7 17.7-17.7 9.7 0 17.7 7.9 17.7 17.7v68.4c0 9.7-7.9 17.7-17.7 17.7z"/><path d="M456.3 743.1c-11.3 0-20.5-9.2-20.5-20.5v-68.4c0-11.3 9.2-20.5 20.5-20.5s20.5 9.2 20.5 20.5v68.4c0 11.3-9.2 20.5-20.5 20.5zm0-103.8c-8.2 0-14.9 6.7-14.9 14.9v68.4c0 8.2 6.7 14.9 14.9 14.9s14.9-6.7 14.9-14.9v-68.4c0-8.2-6.7-14.9-14.9-14.9z"/><path class="st4" d="M575.3 740.3c-9.7 0-17.7-7.9-17.7-17.7v-68.4c0-9.7 7.9-17.7 17.7-17.7 9.7 0 17.7 7.9 17.7 17.7v68.4c.1 9.7-7.9 17.7-17.7 17.7z"/><path d="M575.3 743.1c-11.3 0-20.5-9.2-20.5-20.5v-68.4c0-11.3 9.2-20.5 20.5-20.5s20.5 9.2 20.5 20.5v68.4c.1 5.4-2 10.5-5.8 14.3-3.9 4-9.2 6.2-14.7 6.2zm0-103.8c-8.2 0-14.9 6.7-14.9 14.9v68.4c0 8.2 6.7 14.9 14.9 14.9 4 0 7.8-1.6 10.6-4.5 2.8-2.8 4.3-6.5 4.3-10.4v-68.4c0-8.2-6.7-14.9-14.9-14.9z"/><path class="st4" d="M694.4 740.3c-9.7 0-17.7-7.9-17.7-17.7v-68.4c0-9.7 7.9-17.7 17.7-17.7 9.7 0 17.7 7.9 17.7 17.7v68.4c0 9.7-7.9 17.7-17.7 17.7z"/><path d="M694.4 743.1c-11.3 0-20.5-9.2-20.5-20.5v-68.4c0-11.3 9.2-20.5 20.5-20.5s20.5 9.2 20.5 20.5v68.4c0 11.3-9.2 20.5-20.5 20.5zm0-103.8c-8.2 0-14.9 6.7-14.9 14.9v68.4c0 8.2 6.7 14.9 14.9 14.9s14.9-6.7 14.9-14.9v-68.4c0-8.2-6.7-14.9-14.9-14.9z"/><path class="st8" d="M785.8 633.2c-13 0-25.4-13.8-34-37.8-7.1-19.6-10.7-40.2-11.1-61.1-1-67.1 14.2-115.6 46.6-148.4 16.5-16.7 37.6-29.4 63-38.1 27.1-9.2 59.9-13.8 97.5-13.8 126.6 0 139 25.6 158.1 64.5 4.4 8.8 8.8 18 15.1 28h30.3c14.3 0 26 11.6 26 26 0 14.3-11.6 26-26 26-1.6 0-156.9-.1-256.7-.1-53.8 0-74.4 0-81 .1l.9 98.8c-.2 38.6-14.5 55.9-28.7 55.9z"/><path d="M947.7 336.8c154.4 0 136 37.3 171.6 92.5h31.8c12.8 0 23.2 10.4 23.2 23.2 0 12.8-10.4 23.2-23.2 23.2 0 0-155.8-.1-256.7-.1-48.2 0-84 0-84 .1l1 101.6c0 34-11.8 53.2-25.6 53.2-10.6 0-22.6-11.3-31.5-36-6.8-18.9-10.6-39.2-11-60.2-1.5-108.2 38.1-197.5 204.4-197.5m0-5.6c-37.9 0-71 4.7-98.4 13.9-25.7 8.7-47.4 21.7-64 38.7-32.9 33.4-48.4 82.6-47.4 150.5.3 21.3 4.1 42.1 11.3 62.1 9.1 25.3 22.4 39.7 36.7 39.7 9.2 0 17.4-6 23.1-16.9 5.4-10.4 8.3-25 8.3-42l-.9-96c8.8 0 30.3-.1 78.2-.1 99.7 0 255.1.1 256.7.1 15.9 0 28.8-12.9 28.8-28.8s-12.9-28.8-28.8-28.8h-28.8c-5.8-9.3-10-18-14.1-26.4-9.6-19.7-17.9-36.6-40.4-48.4-23.6-12.2-60.7-17.6-120.3-17.6z"/><path class="st15" d="M475.1 499c0 1.8-.8 3.4-2.2 4.7-1.5 1.2-3.1 1.9-5 1.9-1.2 0-2.5-.3-3.5-1s-1.9-1.7-2.5-3l-3.8-8.4H431l-3.8 8.4c-.6 1.3-1.5 2.4-2.6 3-1.1.7-2.2 1-3.6 1-1.9 0-3.6-.7-5.1-1.9-1.6-1.2-2.4-2.8-2.4-4.7 0-1 .2-2 .8-3.1l22.1-45.2c.7-1.5 1.8-2.7 3.2-3.5 1.5-.8 3-1.2 4.7-1.2s3.2.4 4.7 1.2c1.5.8 2.6 2 3.2 3.5l22.1 45.2c.5 1.1.8 2.1.8 3.1zm-22.2-17.3l-8.4-18.6-8.4 18.6h16.8zm58.2-16.9c1.1 1 1.7 2.6 1.7 4.6 0 2.2-.6 3.8-1.6 4.8s-2.9 1.7-5.6 1.9l-2.5.2c-2.8.3-4.8 1.2-5.9 2.7-1.2 1.5-1.8 3.4-1.8 5.8v14.3c0 2.2-.7 4-2.1 5.1s-3.1 1.7-5.3 1.7-3.9-.6-5.3-1.7c-1.5-1.1-2.1-2.8-2.1-5.1v-28.9c0-2.1.7-3.8 2.1-4.9s3.1-1.8 5.1-1.8 3.7.6 4.9 1.7c1.2 1.1 1.9 2.7 1.9 4.7v1.6c.9-2.5 2.4-4.4 4.4-5.7 2-1.3 4.1-2 6.4-2.1l1.1-.1c2-.3 3.5.2 4.6 1.2zm5.9-9.1c-1.5-1.3-2.2-3-2.2-5.3 0-2.1.8-3.9 2.2-5.1 1.5-1.2 3.5-1.9 5.9-1.9 2.5 0 4.5.7 5.9 1.9 1.5 1.2 2.2 3 2.2 5.1s-.8 3.9-2.2 5.3c-1.5 1.3-3.5 2-5.9 2-2.4-.1-4.4-.8-5.9-2zm.7 48.5c-1.5-1.1-2.1-2.8-2.1-5.1v-28.7c0-2.2.7-4 2.1-5.1 1.4-1.1 3.1-1.7 5.3-1.7 2.1 0 3.9.6 5.3 1.7 1.5 1.1 2.1 2.8 2.1 5.1v28.8c0 2.2-.7 4-2.1 5.1-1.5 1.1-3.1 1.7-5.3 1.7-2.2 0-4-.6-5.3-1.8zm63.1-38.9c1.3 1.2 2 2.9 2 4.9v30.1c0 6.8-2 12-6.2 15.4-4.1 3.5-10.1 5.3-18 5.3-3 0-5.9-.2-8.7-.8-2.7-.6-5-1.3-6.9-2.5-1-.6-1.8-1.2-2.4-2.1-.6-.9-.9-1.9-.9-3 0-1.6.4-2.9 1.2-3.9.8-1 1.9-1.5 3.1-1.5 1 0 2.8.4 5.5 1.2 1.7.6 3.2 1 4.6 1.3 1.4.3 2.7.4 4.1.4 3.4 0 5.9-.7 7.5-2.1 1.6-1.5 2.4-3.7 2.4-6.7v-3.1c-1.2 1.8-3 3.2-5.3 4.4s-4.8 1.7-7.4 1.7c-3.6 0-6.7-.8-9.5-2.5s-4.9-4-6.5-7.2c-1.6-3.2-2.4-6.7-2.4-10.7s.8-7.6 2.4-10.7c1.6-3.1 3.7-5.5 6.5-7.3 2.8-1.7 5.9-2.6 9.5-2.6 2.7 0 5.3.6 7.5 1.7s4 2.7 5.3 4.6c.1-1.9.8-3.4 2.1-4.5s3-1.7 5.1-1.7c2.3.1 4.1.7 5.4 1.9zM566 490.7c1.5-1.6 2.1-3.9 2.1-6.8s-.7-5.3-2.1-6.9c-1.4-1.6-3.5-2.5-6-2.5s-4.6.8-6 2.5c-1.4 1.7-2.1 3.9-2.1 6.9 0 2.9.8 5.1 2.2 6.8s3.5 2.5 5.9 2.5c2.6-.1 4.6-.9 6-2.5zm58.7-22.8c3 3 4.6 7.6 4.6 13.8v17.5c0 2.1-.7 3.8-1.9 4.9-1.2 1.2-3 1.8-5.3 1.8-1.9 0-3.6-.6-4.8-1.7-1.2-1.1-1.9-2.6-2-4.5-.8 2-2.1 3.6-3.9 4.7s-4 1.7-6.6 1.7c-2.8 0-5.4-.6-7.7-1.7-2.2-1.1-4-2.7-5.4-4.8-1.3-2-2-4.4-2-6.9 0-2.9.8-5.3 2.4-7.1 1.6-1.8 3.9-3 7.3-3.8 3.4-.8 7.8-1.1 13.5-1.1h2.2v-1c0-1.9-.4-3.4-1.3-4.3-.9-.9-2.4-1.3-4.5-1.3-2.2 0-5.6.8-10.1 2.4-1.2.4-2.4.7-3.2.7-1.3 0-2.5-.4-3.4-1.5-.8-1-1.2-2.4-1.2-3.9 0-1.2.2-2.2.8-3 .4-.8 1.3-1.5 2.5-2.1 1.9-1 4.4-1.8 7.4-2.5 2.9-.6 5.8-.9 8.7-.9 6.2 0 10.9 1.6 13.9 4.6zM613.3 494c1.2-1.5 1.9-3.2 1.9-5.5v-1h-1.3c-3.6 0-6 .3-7.6 1-1.5.7-2.2 1.7-2.2 3.2 0 1.2.4 2.4 1.2 3.1.8.8 1.9 1.2 3.1 1.2 2 .1 3.5-.6 4.9-2zm54.3 6.4c0 1.9-.8 3.4-2.2 4.4-1.5.9-3.7 1.3-6.4 1.1l-2.4-.1c-5-.3-8.8-1.9-11.4-4.6-2.6-2.7-3.9-6.4-3.9-11.1v-14.8h-2.5c-4.5 0-6.7-1.8-6.7-5.5 0-3.6 2.2-5.5 6.7-5.5h2.5v-5.5c0-2.1.7-3.8 2-5s3.1-1.9 5.5-1.9c2.2 0 4.1.7 5.5 1.9 1.3 1.2 2 2.9 2 5v5.5h4.6c4.5 0 6.7 1.8 6.7 5.5s-2.2 5.5-6.7 5.5h-4.6v16c0 1 .3 1.9 1 2.7.7.7 1.5 1.1 2.5 1.1l2.5.1c3.4.3 5.3 2 5.3 5.2z"/><path class="st1" d="M730.6 475.6c-.2-2.7-1.3-5.3-3.4-7.3L714.9 456c-2.2-2.2-5.3-3.5-8.4-3.5-3.1 0-6.2 1.2-8.4 3.5l-12.3 12.3c-2 2-3.1 4.6-3.4 7.3-.1 1.5 0 3 .4 4.5s1.1 2.8 2 3.9c.3.3.6.7.9 1l12.3 12.3c2.2 2.2 5.3 3.5 8.4 3.5 3.1 0 6.2-1.2 8.4-3.5l12.3-12.3c.3-.3.7-.7.9-1 .9-1.2 1.7-2.6 2-3.9.6-1.5.7-3 .6-4.5z"/><path d="M737.3 475.6c-.2-4.4-2-8.7-5.4-12l-12.3-12.3c-3.6-3.6-8.4-5.5-13.1-5.5-4.8 0-9.5 1.8-13.1 5.5l-12.3 12.3c-3.4 3.4-5.1 7.6-5.4 12v8.4c.1 4.6 1.9 9.1 5.5 12.5l12.3 12.3c3.6 3.6 8.4 5.5 13.1 5.5 4.8 0 9.5-1.8 13.1-5.5l12.3-12.3c3.5-3.5 5.3-7.9 5.5-12.5v-7.6l-.2-.8zm-7.2 4.5c-.4 1.5-1.1 2.8-2 3.9-.3.3-.6.7-.9 1l-12.3 12.3c-2.2 2.2-5.3 3.5-8.4 3.5-3.1 0-6.2-1.2-8.4-3.5L685.8 485c-.3-.3-.7-.7-.9-1-.9-1.2-1.7-2.6-2-3.9-.4-1.5-.6-3-.4-4.5.2-2.7 1.3-5.3 3.4-7.3l12.3-12.3c2.2-2.2 5.3-3.5 8.4-3.5 3.1 0 6.2 1.2 8.4 3.5l12.3 12.3c2 2 3.1 4.6 3.4 7.3 0 1.5-.1 3-.6 4.5z" fill="#222d0c"/><path class="st15" d="M715.5 480.7l-5 5c-2.2 2.2-5.8 2.2-7.9 0l-5-5c-2.2-2.2-2.2-5.8 0-7.9l5-5c2.2-2.2 5.8-2.2 7.9 0l5 5c2.1 2.2 2.1 5.7 0 7.9z"/><path class="st1" d="M316.8 815.9H458c5.5 0 10-4.5 10-10s-4.5-10-10-10H316.8c-5.5 0-10 4.5-10 10 0 5.6 4.5 10 10 10zm183.5 0c-5.5 0-10-4.5-10-10s4.5-10 10-10 10 4.5 10 10c.1 5.6-4.4 10-10 10zm-208.4 44.8h87.8c5.5 0 10-4.5 10-10s-4.5-10-10-10h-87.8c-5.5 0-10 4.5-10 10-.1 5.5 4.4 10 10 10zm130.2 0h114.2c5.5 0 10-4.5 10-10s-4.5-10-10-10H422.1c-5.5 0-10 4.5-10 10s4.5 10 10 10zm-18.3 44.8h87.8c5.5 0 10-4.5 10-10s-4.5-10-10-10h-87.8c-5.5 0-10 4.5-10 10s4.4 10 10 10zm-49.1 0c-5.5 0-10-4.5-10-10s4.5-10 10-10 10 4.5 10 10c-.1 5.5-4.5 10-10 10zm-96.4-44.8c-5.5 0-10-4.5-10-10s4.5-10 10-10 10 4.5 10 10c-.1 5.5-4.6 10-10 10z"/><path class="st0" d="M106.8 815.9H178c5.5 0 10-4.5 10-10s-4.5-10-10-10h-71.2c-5.5 0-10 4.5-10 10 0 5.6 4.5 10 10 10zm-54.9 44.8h147.7c5.5 0 10-4.5 10-10s-4.5-10-10-10H51.9c-5.5 0-10 4.5-10 10-.1 5.5 4.4 10 10 10zm71.9 44.8h87.8c5.5 0 10-4.5 10-10s-4.5-10-10-10h-87.8c-5.5 0-10 4.5-10 10s4.4 10 10 10zm-49.1 0c-5.5 0-10-4.5-10-10s4.5-10 10-10 10 4.5 10 10c-.1 5.5-4.5 10-10 10zm-6.4-90.8c-5.5 0-10-4.5-10-10s4.5-10 10-10 10 4.5 10 10c-.1 5.5-4.6 10-10 10z"/></svg>