<svg version="1.1" id="Layer_1" xmlns="http://www.w3.org/2000/svg" x="0" y="0" viewBox="0 0 500 500" xml:space="preserve"><style>.st0{fill:#d43732}.st1{fill:#e8c347}.st2{fill:#090a08}</style><path class="st0" d="M332 391.9c0-69-36.7-124.9-82-124.9s-82 55.9-82 124.9 164 68.9 164 0z"/><path d="M250 446.1c-21.9 0-42.3-4.7-57.6-13.2-17.6-9.9-26.9-24-26.9-41 0-33.8 8.7-65.7 24.4-89.7 16-24.3 37.3-37.7 60-37.7s44.1 13.4 60 37.7c15.7 24 24.4 55.8 24.4 89.7.1 37.2-43.6 54.2-84.3 54.2zm0-176.6c-43.8 0-79.5 54.9-79.5 122.4 0 33.8 41.2 49.2 79.5 49.2s79.5-15.4 79.5-49.2c0-67.5-35.7-122.4-79.5-122.4z"/><path class="st0" d="M176.3 292.9c-.3.5-.6 1.1-.9 1.6-21.7 42.9 11.7 91.1 67.4 98.6l6.9.9v-64.5l-14-1.2c-26.1-2-48.8-15.6-59.4-35.4z"/><path d="M249.8 396.6h-.3l-6.9-.9c-30.6-4.1-56.3-20.7-68.7-44.2-9.8-18.7-10-39.3-.6-58 .3-.6.6-1.1.9-1.7.4-.8 1.3-1.3 2.2-1.3.9 0 1.8.5 2.2 1.3 10.1 19.1 32.1 32.2 57.5 34.3l14 1.2c1.3.1 2.3 1.2 2.3 2.5v64.5c0 .7-.3 1.4-.8 1.9-.7.1-1.2.4-1.8.4zm-73.3-98.5c-7.5 16.6-6.9 34.6 1.7 51 11.7 22.1 36 37.7 65 41.6l4.1.6V332l-11.7-1c-25.2-2.1-47.4-14.6-59.1-32.9z"/><path class="st0" d="M323.7 292.9c.3.5.6 1.1.9 1.6 21.7 42.9-11.7 91.1-67.4 98.6l-6.9.9v-64.5l14-1.2c26.1-2 48.8-15.6 59.4-35.4z"/><path d="M250.2 396.6c-.6 0-1.2-.2-1.6-.6-.5-.5-.8-1.2-.8-1.9v-64.5c0-1.3 1-2.4 2.3-2.5l14-1.2c25.3-2.1 47.3-15.2 57.5-34.3.4-.8 1.3-1.3 2.2-1.3.9 0 1.8.5 2.2 1.3.3.6.6 1.1.9 1.7 9.5 18.7 9.3 39.3-.6 58-12.4 23.6-38.1 40.1-68.7 44.2l-6.9.9c-.2.1-.4.2-.5.2zm2.5-64.7v59.3l4.1-.6c29-3.9 53.3-19.5 65-41.6 8.6-16.4 9.2-34.4 1.7-51-11.7 18.3-33.9 30.8-59.1 32.9l-11.7 1z"/><path class="st1" d="M319.6 219.1l-6.7-3.3 52.8-120c2.4-4.8 8.2-6.8 13-4.4 4.8 2.4 6.8 8.2 4.4 13l-63.5 114.7z"/><path d="M319.6 221.6c-.4 0-.7-.1-1.1-.3l-6.7-3.3c-1.2-.6-1.7-2-1.2-3.2l52.8-120v-.1c1.4-2.9 3.9-5.1 7-6.1s6.4-.8 9.3.6c6 3 8.5 10.3 5.5 16.3 0 0 0 .1-.1.1l-63.5 114.7c-.3.8-1.2 1.3-2 1.3zm-3.5-7l2.4 1.2 62.3-112.6c1.7-3.5.3-7.8-3.3-9.6-1.7-.9-3.7-1-5.5-.4-1.8.6-3.3 1.9-4.1 3.6l-51.8 117.8z"/><path class="st1" d="M319.8 220.2l-5.6-4.9 81.3-102.9c3.5-4 9.6-4.5 13.7-1 4 3.5 4.5 9.6 1 13.7l-90.4 95.1z"/><path d="M319.8 222.7c-.6 0-1.2-.2-1.6-.6l-5.6-4.9c-1-.9-1.1-2.4-.3-3.4l81.3-102.9s0-.1.1-.1c4.4-5.1 12.1-5.6 17.2-1.2 2.5 2.1 3.9 5.1 4.2 8.3.2 3.2-.8 6.4-2.9 8.8l-.1.1-90.3 95.1c-.7.5-1.3.8-2 .8zm-2.2-7.7l2 1.8 88.6-93.3c2.6-3 2.2-7.5-.8-10.1-3-2.6-7.5-2.3-10.1.7L317.6 215z"/><circle class="st2" cx="115.9" cy="212.1" r="55.6"/><circle class="st2" cx="384.1" cy="212.1" r="55.6"/><path d="M351.7 157.8c-.6 0-64.5-24.1-101.9-24.1-37.9 0-101.3 24.8-101.5 24.8-12.8 0-13.2 28.2-13.2 62.9 0 16.8 2.4 32 6.4 43.3 6.7 27.6 52.7 49 108.4 49 54.5 0 99.6-20.4 107.9-47.1 4.5-11.5 7.3-27.8 7.3-45.9-.1-34.7-.6-62.9-13.4-62.9z" fill="#f1cfb2"/><path d="M249.8 316.3c-56.1 0-103.7-21.8-110.8-50.8-4.2-12-6.5-27.6-6.5-44 0-34.8 0-64.8 15.3-65.4.2-.1.4-.1.7-.3 19.8-7.4 69.3-24.6 101.3-24.6 15.3 0 45.1 4.1 100.1 23.4.9.3 1.8.6 2.2.8 15.3.5 15.3 30.6 15.3 65.4 0 17.8-2.7 34.4-7.5 46.7-8.7 28.2-55.1 48.8-110.1 48.8zm0-180.1c-31.2 0-80 17-99.5 24.3-1.5.6-1.5.6-2 .6-10.8 0-10.8 32.1-10.8 60.5 0 15.9 2.2 31 6.2 42.5l.1.2c6.5 26.9 52 47.1 106 47.1 52.1 0 97.5-19.5 105.5-45.4l.1-.2c4.5-11.6 7.2-28 7.2-45 0-28.3 0-60.5-10.8-60.5-.5 0-.5 0-3.5-1-54.4-19.1-83.6-23.1-98.5-23.1z"/><path class="st2" d="M365 179c0-41.9-30.1-86.7-115-86.7-85 0-115 44.9-115 86.7 0 13.3 17.4 22.7 44.4 28.3l7.3-18.3 8.4 21c12.7 1.7 26.8 2.8 41.8 3.2l13-32.4 13 32.4c15.4-.4 29.9-1.5 42.9-3.3l8.3-20.8 7.3 18.1c26.6-5.7 43.6-15 43.6-28.2z"/><path class="st0" d="M269.1 270.6c0 11-8.5 20-19.1 20-10.5 0-19.1-8.9-19.1-20h38.2z"/><path d="M250 293c-11.9 0-21.6-10.1-21.6-22.5 0-1.4 1.1-2.5 2.5-2.5h38.2c1.4 0 2.5 1.1 2.5 2.5 0 12.5-9.7 22.5-21.6 22.5zm-16.4-19.9c1.1 8.5 8.1 15 16.4 15 8.4 0 15.3-6.5 16.4-15h-32.8zm-30.5-19.8c-2.7 0-5-2.2-5-5 0-7-5.7-12.7-12.7-12.7-7 0-12.7 5.7-12.7 12.7 0 2.7-2.2 5-5 5-2.7 0-5-2.2-5-5 0-12.5 10.1-22.6 22.6-22.6 12.5 0 22.6 10.1 22.6 22.6.1 2.8-2.1 5-4.8 5zm129.1 0c-2.7 0-5-2.2-5-5 0-7-5.7-12.7-12.7-12.7-7 0-12.7 5.7-12.7 12.7 0 2.7-2.2 5-5 5s-5-2.2-5-5c0-12.5 10.1-22.6 22.6-22.6s22.6 10.1 22.6 22.6c.2 2.8-2 5-4.8 5z"/></svg>