<svg xmlns="http://www.w3.org/2000/svg" viewBox="0 0 491.6 491.6"><path d="M245.8 0C153.8 0 79 74.8 79 166.8c0 37 21.8 93.2 68.5 176.9 31.9 57.1 63.6 105.4 65 107.4l22.9 34.8c2.3 3.5 6.2 5.6 10.4 5.6s8.1-2.1 10.4-5.6l22.9-34.8c1.3-2 32.8-49.9 65-107.4 46.7-83.7 68.5-140 68.5-176.9C412.6 74.8 337.8 0 245.8 0zm76.5 331.6c-31.7 56.8-62.7 103.9-64 105.8l-12.5 19-12.5-19c-1.3-2-32.6-49.5-64-105.9-43.4-77.6-65.3-133-65.3-164.7C104 88.6 167.6 25 245.8 25s141.8 63.6 141.8 141.8c0 31.7-22 87.1-65.3 164.8z"/><path d="M245.8 73.3c-51 0-92.5 41.5-92.5 92.5s41.5 92.5 92.5 92.5 92.5-41.5 92.5-92.5-41.5-92.5-92.5-92.5zm0 160c-37.2 0-67.5-30.3-67.5-67.5s30.3-67.5 67.5-67.5 67.5 30.3 67.5 67.5-30.3 67.5-67.5 67.5z"/></svg>