<svg xmlns="http://www.w3.org/2000/svg" viewBox="0 0 490 490"><path d="M338.1 85V0L70.6 85.3V490h348.8V85h-81.3zm-20.7-56.7V85H139.5l177.9-56.7zm81.3 441H91.3V105.7h307.4v363.6z"/><path d="M135.7 205.2l15.2 31h7.6l15.3-31v35.7h12.7v-56.8h-17l-14.8 31.2-14.6-31.2H123v56.8h12.7zm106.6 24.5h-29.1v-11.8h25.4v-10.8h-25.4v-11.7h28.2v-11.3h-40.9v56.8h41.8zm24-24.4l27 35.6H306v-56.8h-12.7v36.6l-27.8-36.6h-11.9v56.8h12.7zm77.2 36.2c7.1 0 12.9-2.2 17.5-6.6 4.5-4.4 6.8-10.7 6.8-19v-31.8h-12.7v31.4c0 4.5-1 8.1-3.1 10.8-2.1 2.6-4.9 3.9-8.5 3.9-3.6 0-6.4-1.3-8.5-3.9-2.1-2.6-3.2-6.2-3.2-10.8v-31.4h-12.7v31.8c0 8.2 2.3 14.5 6.9 18.9 4.6 4.5 10.4 6.7 17.5 6.7zm-214.3 43.9h231.2v20.7H129.2zm0 61.3h231.2v20.7H129.2zm0 61.3h231.2v20.7H129.2z"/></svg>