<svg xmlns="http://www.w3.org/2000/svg" viewBox="0 0 41.3 41.3"><path d="M20.6 0c5.7 0 10.9 2.3 14.6 6 3.7 3.7 6 8.9 6 14.6s-2.3 10.9-6 14.6c-3.7 3.7-8.9 6-14.6 6S9.8 39 6.1 35.3c-3.7-3.7-6-8.9-6-14.6C0 15 2.3 9.8 6.1 6c3.7-3.7 8.8-6 14.5-6zm10.6 19.5c.6 0 1.1.5 1.1 1.1 0 .6-.5 1.1-1.1 1.1H20.7c-.4 0-.8-.2-1-.6V7.2c0-.6.5-1.1 1.1-1.1s1.1.5 1.1 1.1v12.3h9.3zm2.5-11.9c-3.3-3.3-7.9-5.4-13-5.4s-9.7 2-13 5.4c-3.3 3.3-5.4 7.9-5.4 13s2.1 9.7 5.4 13C11 37 15.6 39 20.6 39s9.7-2 13-5.4 5.4-7.9 5.4-13c.1-5-2-9.6-5.3-13z" fill="#1e201d"/></svg>