<svg version="1.1" id="Layer_1" xmlns="http://www.w3.org/2000/svg" x="0" y="0" viewBox="0 0 187.9 188" xml:space="preserve"><style>.st0{fill:#000703}.st1{fill:#d14a43}.st2{fill:#ebb144}</style><path class="st0" d="M132.7 135.3c1.1-2.9 1.5-6.2 1.3-9.7-.2-3.5-1.1-7.2-2.6-11.2-2.5-6.6-5.8-11.5-5.9-11.7l-.9-1.2-3.9 1.1-.1-.3H66.2l-3-.9-.8 1.2c-.1.2-3.5 5-5.9 11.7-1.5 3.9-2.3 7.7-2.6 11.2-.2 3.8.3 7.2 1.5 10.3-.7 2.3-1.8 6.5-2.4 11.7-.6 4.5-.7 8.8-.4 12.7.4 5 1.6 9.5 3.5 13.3 3.4 6.9 9.1 11.7 17 14.3l.3.1h41.8l.4-.2c7.1-3.1 12.4-7.9 15.8-14.3 2.7-5.1 4.1-11.1 4.3-17.9.1-9.1-2.1-17.3-3-20.2zm-9.8-29c2 3.3 7.1 12.4 7 21.2l-7.7-21 .7-.2zm-56.3 7.2c.2.3.3.6.5 1 3.4 5.4 11.7 8.2 24.7 8.5v24.7c-9-.2-16.4-1.4-21.9-3.7-4.9-2-8.3-4.9-10.2-8.5v-.1l6.9-21.9zm10.4 3.1c-3.1-1.1-5.2-2.5-6.3-4.3-1.5-2.3-1-4.8-.6-5.8h47.7l.1.3c.3 1.1.6 3.3-.7 5.4-1.1 1.8-3.3 3.3-6.3 4.4-4.1 1.5-9.8 2.2-17 2.2-7.1 0-12.8-.7-16.9-2.2zm19 6.4c13-.3 21.3-3.1 24.7-8.5l7.6 20.6c-.1.1-.1.3-.2.4-1.9 3.6-5.3 6.5-10.2 8.5-5.5 2.3-12.8 3.5-21.9 3.7V123zm-32.1-14.9l-6 19.4c0-7.5 3.7-15.3 6-19.4zm67.4 47.5c-.4 13.4-5.8 22.7-16.2 27.8-1.5-4.4-5.7-7.6-10.6-7.6-4.9 0-9.1 3.2-10.6 7.6-1.5-4.4-5.7-7.6-10.6-7.6-4.9 0-9.1 3.2-10.6 7.6-5.9-2.3-10.3-6.2-13-11.6-3.8-7.6-3.6-17.1-2.8-23.6.4-2.8.8-5.3 1.3-7.4 6.1 7.3 18 11 35.6 11 17.8 0 29.9-3.8 35.9-11.4.9 3.9 1.8 9.4 1.6 15.2z"/><path class="st1" d="M59.8 135.5c-5.5-10.4 2.5-24.9 5.2-29.2l.8.2c-.4 2-.5 4.9 1.4 7.9 3.4 5.4 11.7 8.2 24.7 8.5v24.7c-9-.2-16.4-1.4-21.9-3.7-4.9-1.9-8.3-4.8-10.2-8.4zm68.3 0c-1.9 3.6-5.3 6.5-10.2 8.5-5.5 2.3-12.8 3.5-21.9 3.7V123c13-.3 21.3-3.1 24.7-8.5 1.8-2.9 1.8-5.9 1.4-7.9l.8-.2c2.7 4.2 10.6 18.7 5.2 29.1z"/><path class="st1" d="M77 116.6c-3.1-1.1-5.2-2.5-6.3-4.3-1.5-2.3-1-4.8-.6-5.8h47.7l.1.3c.3 1.1.6 3.3-.7 5.4-1.1 1.8-3.3 3.3-6.3 4.4-4.1 1.5-9.8 2.2-17 2.2-7.1 0-12.8-.7-16.9-2.2zm54.3 39c-.4 13.4-5.8 22.7-16.2 27.8-1.5-4.4-5.7-7.6-10.6-7.6-4.9 0-9.1 3.2-10.6 7.6-1.5-4.4-5.7-7.6-10.6-7.6-4.9 0-9.1 3.2-10.6 7.6-5.9-2.3-10.3-6.2-13-11.6-3.8-7.6-3.6-17.1-2.8-23.6.4-2.8.8-5.3 1.3-7.4 6.1 7.3 18 11 35.6 11 17.8 0 29.9-3.8 35.9-11.4.9 3.9 1.8 9.4 1.6 15.2z"/><path class="st2" d="M39.1 50.8c-.5 0-.9-.1-1.3-.4L4.2 24.1c-.4-.3-.6-.7-.7-1.1-.1-.4-.9-3.6 1-6.1.8-1.1 2.5-2.4 5.7-2.4h.3c.5 0 1.1.2 1.4.6l28.6 29.5c.4.4.6.9.6 1.5v2.7c0 .8-.5 1.5-1.2 1.9-.1 0-.4.1-.8.1z"/><path class="st0" d="M10.2 16.6h.3l28.6 29.5v2.7L5.5 22.5s-1.5-5.9 4.7-5.9m0-4.2c-4 0-6.2 1.7-7.3 3.2-2.5 3.2-1.6 7.2-1.4 7.9.2.9.7 1.7 1.5 2.2L36.6 52c.7.6 1.6.9 2.6.9.6 0 1.2-.1 1.8-.4 1.4-.7 2.3-2.2 2.3-3.7v-2.7c0-1.1-.4-2.1-1.2-2.9L13.5 13.7c-.8-.8-1.8-1.2-2.9-1.3h-.4z"/><path class="st2" d="M39.4 47c-.7 0-1.4-.4-1.8-1L16.3 9.4c-.3-.4-.4-1-.3-1.5.9-3.7 3.3-5.8 6.6-5.8 1.7 0 3.1.6 3.3.7.5.2.9.6 1.1 1.1l15.3 36.7c.2.4.2.9.1 1.4l-1 3.5c-.2.8-.9 1.4-1.7 1.5h-.3z"/><path class="st0" d="M162.6 42.5c-4.2 0-8.2 1-11.7 2.8-2-8.4-5.4-15.6-10.4-21.3-4.7-5.4-10.8-9.6-18-12.4-8-3.1-17.7-4.7-28.8-4.7-20.2 0-35.4 5.8-45.3 17.1-2.7 3-4.8 6.4-6.6 9.8L29 3c-.4-1-1.2-1.8-2.2-2.2-.3-.1-2-.8-4.1-.8-1.9 0-3.7.6-5.1 1.6-1.8 1.3-3 3.3-3.5 5.8-.2 1-.1 2.1.5 3L34.3 44c-2.7-1-5.7-1.6-8.8-1.6C11.3 42.5 0 53.8 0 67.8c0 14 11.3 25.3 25.3 25.3 4.3 0 8.4-1.1 12-3 1.5 4.3 4.9 8 10.2 11 4.9 2.8 11.4 5 19.4 6.6 13.4 2.7 26.3 2.8 26.8 2.8s13.4-.1 26.8-2.8c8-1.6 14.5-3.8 19.4-6.6 5.4-3.1 8.9-6.8 10.3-11.2 3.7 2.1 7.9 3.3 12.4 3.3 14 0 25.3-11.3 25.3-25.3 0-14.1-11.3-25.4-25.3-25.4zM22.7 4.2c1.4 0 2.5.5 2.5.5l14.3 34.5c-.5 1.2-.9 2.4-1.2 3.7L18.1 8.4c.8-3.5 2.9-4.2 4.6-4.2z"/><path d="M40.7 86.3l.1.4c1.3 9.8 15.4 14.6 26.9 16.9 12.9 2.6 25.7 2.7 26 2.7.4 0 13.1-.1 26-2.7 11.5-2.3 25.6-7.2 26.9-16.9l.1-.6c1-6.9 2.5-17.5 1.8-28.5-6.9 1.8-21 3.5-21 3.5l-3.4-7.7-1.2 8.2c-11.6 1.8-24.4 1.8-24.4 1.8l-4.6-14.6-4.6 14.6s-12.8 0-24.4-1.8l-1.2-8.2-3.6 7.6s-13.5-1.6-20.5-3.3c-1.2 12.1.4 23.2 1.1 28.6z" fill="#eab191"/><path class="st0" d="M130.9 79.6c-1.3 0-2.4-1.1-2.4-2.4 0-2-1.6-3.7-3.7-3.7-2 0-3.7 1.6-3.7 3.7 0 1.3-1.1 2.4-2.4 2.4-1.3 0-2.4-1.1-2.4-2.4 0-4.7 3.8-8.4 8.4-8.4 4.7 0 8.4 3.8 8.4 8.4.2 1.4-.8 2.4-2.2 2.4zm-61.8 0c-1.3 0-2.4-1.1-2.4-2.4 0-2-1.6-3.7-3.7-3.7-2 0-3.7 1.6-3.7 3.7 0 1.3-1.1 2.4-2.4 2.4-1.3 0-2.4-1.1-2.4-2.4 0-4.7 3.8-8.4 8.4-8.4 4.7 0 8.4 3.8 8.4 8.4.1 1.4-.9 2.4-2.2 2.4zm24.8 17.6c-5.9 0-8.9-3-10.4-5.5-1.5-2.6-1.7-5.2-1.7-5.4 0-.7.2-1.3.6-1.8.4-.5 1.1-.7 1.7-.7h19.6c.7 0 1.3.3 1.7.7.4.5.7 1.1.6 1.8 0 .3-.2 2.8-1.7 5.4-1.4 2.5-4.4 5.5-10.4 5.5zm-6.7-8.7c.1.3.3.6.5.9 1.3 2.1 3.3 3.1 6.3 3.1 2.9 0 5-1 6.3-3.1.2-.3.3-.6.5-.9H87.2z"/><path class="st1" d="M87.2 88.5c.1.3.3.6.5.9 1.3 2.1 3.3 3.1 6.3 3.1 2.9 0 5-1 6.3-3.1.2-.3.3-.6.5-.9H87.2z"/></svg>