<svg xmlns="http://www.w3.org/2000/svg" viewBox="0 0 753.2 753.2"><path d="M494.3 659.1c13 0 23.5-10.5 23.5-23.5V353.1c0-13-10.5-23.5-23.5-23.5s-23.5 10.5-23.5 23.5v282.5c0 12.9 10.5 23.5 23.5 23.5zM635.5 94.2H494.3V47.1c0-26-21.1-47.1-47.1-47.1H306c-26 0-47.1 21.1-47.1 47.1v47.1H117.7c-26 0-47.1 21.1-47.1 47.1v47.1c0 26 21.1 47.1 47.1 47.1v423.7c0 52 42.2 94.2 94.2 94.2h329.5c52 0 94.2-42.2 94.2-94.2V235.4c26 0 47.1-21.1 47.1-47.1v-47.1c-.1-26-21.2-47-47.2-47zM306 70.6c0-13 10.5-23.5 23.5-23.5h94.2c13 0 23.5 10.5 23.5 23.5v23.5H306V70.6zm282.5 588.5c0 26-21.1 47.1-47.1 47.1H211.8c-26 0-47.1-21.1-47.1-47.1V235.4h423.7v423.7zM612 188.3H141.2c-13 0-23.5-10.5-23.5-23.5s10.5-23.5 23.5-23.5H612c13 0 23.5 10.5 23.5 23.5S625 188.3 612 188.3zM258.9 659.1c13 0 23.5-10.5 23.5-23.5V353.1c0-13-10.5-23.5-23.5-23.5s-23.5 10.5-23.5 23.5v282.5c0 12.9 10.5 23.5 23.5 23.5zm117.7 0c13 0 23.5-10.5 23.5-23.5V353.1c0-13-10.5-23.5-23.5-23.5s-23.5 10.5-23.5 23.5v282.5c0 12.9 10.5 23.5 23.5 23.5z"/></svg>