<svg version="1.1" id="Capa_1" xmlns="http://www.w3.org/2000/svg" x="0" y="0" viewBox="0 0 512 512" xml:space="preserve"><style>.st0{fill:#fff}</style><path class="st0" d="M268 411.9h-24c-2.1 0-3.8 1.7-3.8 3.8v15.8c0 2.1 1.7 3.8 3.8 3.8h24c2.1 0 3.8-1.7 3.8-3.8v-15.8c0-2-1.7-3.8-3.8-3.8z"/><path class="st0" d="M365.5 47.9h-219c-13.9 0-25.2 11.3-25.2 25.2v365.8c0 13.9 11.3 25.2 25.2 25.2h219.1c13.9 0 25.2-11.3 25.2-25.2V73.1c0-13.9-11.4-25.2-25.3-25.2zM237.2 66.8h37.5c3.5 0 6.3 2.8 6.3 6.3s-2.8 6.3-6.3 6.3h-37.5c-3.5 0-6.3-2.8-6.3-6.3s2.9-6.3 6.3-6.3zm47.2 364.7c0 9-7.4 16.4-16.4 16.4h-24c-9 0-16.4-7.4-16.4-16.4v-15.8c0-9 7.4-16.4 16.4-16.4h24c9 0 16.4 7.4 16.4 16.4v15.8zm78.3-51.6c0 3.5-2.8 6.3-6.3 6.3H155.6c-3.5 0-6.3-2.8-6.3-6.3V101.4c0-3.5 2.8-6.3 6.3-6.3h200.8c3.5 0 6.3 2.8 6.3 6.3v278.5zm120.6-225.8c-4.3-5.5-12.3-6.4-17.7-2-5.5 4.3-6.4 12.3-2 17.7 15.2 19.2 23.2 42.2 23.2 66.6 0 24.7-8.2 47.9-23.7 67.2-4.4 5.4-3.5 13.4 1.9 17.7 2.3 1.9 5.1 2.8 7.9 2.8 3.7 0 7.3-1.6 9.8-4.7 18.8-23.4 29.2-52.9 29.2-83 .1-30.2-9.8-58.7-28.6-82.3z"/><path class="st0" d="M444.7 182.9c-4.3-5.5-12.3-6.4-17.7-2-5.5 4.3-6.4 12.3-2 17.7 8.6 10.9 13.2 24 13.2 37.9 0 14.1-4.7 27.3-13.5 38.2-4.4 5.4-3.5 13.4 1.9 17.7 2.3 1.9 5.1 2.8 7.9 2.8 3.7 0 7.3-1.6 9.8-4.7 12.3-15.3 19-34.4 19-54s-6.4-38.2-18.6-53.6zM25.2 237c0-24.7 8.2-47.9 23.7-67.2 4.4-5.4 3.5-13.4-1.9-17.7-5.4-4.4-13.4-3.5-17.7 1.9C10.4 177.5 0 206.9 0 237c0 30.2 9.9 58.7 28.7 82.3 2.5 3.1 6.2 4.8 9.9 4.8 2.7 0 5.5-.9 7.8-2.7 5.5-4.3 6.4-12.3 2-17.7-15.1-19.2-23.2-42.2-23.2-66.7z"/><path class="st0" d="M85.4 181c-5.4-4.4-13.4-3.5-17.7 1.9-12.3 15.3-19 34.4-19 54 0 19.7 6.5 38.2 18.7 53.6 2.5 3.1 6.2 4.8 9.9 4.8 2.7 0 5.5-.9 7.8-2.7 5.5-4.3 6.4-12.3 2-17.7-8.6-10.9-13.2-24-13.2-37.9 0-14.1 4.7-27.3 13.5-38.2 4.3-5.5 3.4-13.5-2-17.8z"/></svg>