<svg xmlns="http://www.w3.org/2000/svg" viewBox="0 0 300 113.2"><path d="M9.3 89.4c3.8 0 6.8 1 8.9 3.1s3.2 5 3.2 8.7c0 3.8-1.1 6.8-3.2 8.8-2.1 2.1-5.1 3.1-9 3.1H0V89.4h9.3zM4 109.8h4.9c2.7 0 4.8-.7 6.3-2.2s2.2-3.6 2.2-6.3c0-2.7-.7-4.8-2.3-6.3-1.5-1.5-3.6-2.2-6.3-2.2H4v17zm22.8 3.4V89.4h4v23.8h-4zm32.5-9.8c0 3-1 5.3-3 7.1-2 1.8-4.7 2.7-8.1 2.7-3.7 0-6.6-1.1-8.7-3.3s-3.2-5.2-3.2-8.9 1.1-6.7 3.2-8.9c2.2-2.2 5-3.3 8.7-3.3 2.9 0 5.4.7 7.4 2.1s3.2 3.3 3.6 5.6h-4c-1-2.9-3.4-4.3-7-4.3-2.4 0-4.3.8-5.7 2.4s-2.1 3.7-2.1 6.4.7 4.9 2.1 6.5c1.4 1.6 3.3 2.4 5.8 2.4 2.1 0 3.8-.5 5.1-1.6s2-2.5 2-4.2v-.5h-6.6v-3h10.6l-.1 2.8zm5.5 9.8V89.4h4v23.8h-4zm17 0V92.7h-8.1v-3.4h20.2v3.4h-8.1v20.4l-4 .1zm28.4-6.4h-9.8l-2.4 6.3h-4.1l9.3-23.8h4.3l9.3 23.8h-4.3l-2.3-6.3zm-8.8-3.1h7.8l-3.7-10.1h-.3l-3.8 10.1zm36 9.5h-16.1V89.4h4v20.4h12.1v3.4zm29.4-6.4H157l-2.4 6.3h-4.1l9.3-23.8h4.3l9.3 23.8h-4.3l-2.3-6.3zm-8.8-3.1h7.8l-3.8-10h-.3l-3.7 10zm40.7-.3c0 3-1 5.3-3 7.1-2 1.8-4.7 2.7-8.1 2.7-3.7 0-6.6-1.1-8.7-3.3-2.1-2.2-3.2-5.2-3.2-8.9s1.1-6.7 3.2-8.9c2.2-2.2 5-3.3 8.7-3.3 2.9 0 5.4.7 7.4 2.1s3.2 3.3 3.6 5.6h-4c-1-2.9-3.4-4.3-7-4.3-2.4 0-4.3.8-5.7 2.4s-2.1 3.7-2.1 6.4.7 4.9 2.1 6.5c1.4 1.6 3.3 2.4 5.8 2.4 2.1 0 3.8-.5 5.1-1.6s2-2.5 2-4.2v-.5h-6.6v-3h10.6v2.8h-.1zm21.9 9.8h-16.4V89.4h16.4v3.4h-12.4v6.7h11.7v3.2h-11.7v7.1h12.4v3.4zm5.7 0V89.4h3.6l13.2 16.9h.3V89.4h3.9v23.8h-3.6l-13.2-16.9h-.3v16.9h-3.9zm29.6-3.3c-2.1-2.2-3.1-5.1-3.1-8.9s1-6.7 3.1-8.9 4.9-3.3 8.5-3.3c2.8 0 5.3.8 7.3 2.3s3.1 3.4 3.5 5.8h-4c-.4-1.4-1.2-2.6-2.4-3.4-1.2-.8-2.7-1.3-4.4-1.3-2.3 0-4.1.8-5.5 2.4-1.3 1.6-2 3.7-2 6.4s.7 4.8 2 6.4 3.2 2.4 5.5 2.4c1.7 0 3.2-.4 4.4-1.2 1.2-.8 2-1.8 2.3-3.1h4c-.4 2.3-1.5 4.1-3.5 5.5s-4.4 2.1-7.2 2.1c-3.6.1-6.4-1-8.5-3.2zm31 3.3v-9.6l-9.1-14.2h4.5l6.5 10.3h.3l6.5-10.3h4.4l-9.1 14.2v9.6h-4z" fill="#798f11"/><path d="M24 71L0 0h16.8l16.1 54.3h.9L49.6 0h16L42 71H24zm53.7 0V0h14.9v71H77.7zm47 0h-14.9V0h29.8c7.8 0 14 2 18.4 6.1 4.5 4.1 6.7 9.6 6.7 16.7 0 4.6-1.1 8.7-3.4 12.2-2.3 3.7-5.5 6.3-9.5 7.9l15 28H150l-13.2-25.7h-12.2l.1 25.8zm0-37.2h13c3.7 0 6.7-1 8.8-2.9s3.1-4.6 3.1-8-1.1-6.1-3.2-8c-2.2-2-5.1-3-8.8-3h-12.9v21.9zM220 54.1h-24.9L189.6 71h-14.9l24.6-71h17.5l24.6 71h-16.1L220 54.1zm-21.7-11.5h18.6l-8.8-27.8h-.9l-8.9 27.8zM300 71h-46.4V0h14.9v58.1H300V71z" fill="#d6ff00"/></svg>